<svg id="Capa_1" data-name="Capa 1" xmlns="http://www.w3.org/2000/svg" viewBox="0 0 1080 1080"><defs><style>.cls-1,.cls-2{fill:#05042e;}.cls-1{stroke:#05042e;stroke-miterlimit:10;stroke-width:40.15px;}.cls-3{fill:#36b0c9;}.cls-4{fill:#fff;}</style></defs><path class="cls-1" d="M531.7,686.2a127.7,127.7,0,0,1-89.4-35.9,123.9,123.9,0,0,1-27-39,120.1,120.1,0,0,1,0-95.5,123.9,123.9,0,0,1,27-39,129,129,0,0,1,40.2-26.3,128.8,128.8,0,0,1,138.6,26.3,122.6,122.6,0,0,1,27.1,39,121.2,121.2,0,0,1,0,95.5,122.6,122.6,0,0,1-27.1,39,125.1,125.1,0,0,1-40.2,26.3A126.9,126.9,0,0,1,531.7,686.2Zm0-208.7a88,88,0,0,0-34.4,6.8,89,89,0,0,0-28,18.4,85.4,85.4,0,0,0-19,27.3,85,85,0,0,0,0,67.1,85.4,85.4,0,0,0,19,27.3,89.3,89.3,0,0,0,62.4,25.2,89,89,0,0,0,34.6-6.8,87.8,87.8,0,0,0,28.1-18.4,85.4,85.4,0,0,0,19-27.3,85,85,0,0,0,0-67.1,85.4,85.4,0,0,0-19-27.3,89.8,89.8,0,0,0-62.7-25.2Z"/><path class="cls-2" d="M495.7,729s-47.3-4.6-74.8-38.3"/><path class="cls-2" d="M495.7,719.6c-2.6-.3,2.1.4,0,0l-5.3-.9a148.9,148.9,0,0,1-18.8-5.1c-16.9-5.9-32.4-15.6-44-29.5-3.3-4-10-3.4-13.3,0s-3.3,9.3,0,13.3c19.5,23.5,51.1,38,81.4,41,5,.5,9.4-4.7,9.4-9.4s-4.3-8.9-9.4-9.4Z"/><path class="cls-3" d="M458.3,413.6s38.9-27.3,81.7-19.5"/><path class="cls-4" d="M463,421.7c20.8-14.5,49.3-22.8,74.5-18.5,5,.9,10.1-1.3,11.6-6.6s-1.6-10.7-6.6-11.6c-30.1-5.1-63.8,2.9-89,20.4-4.1,2.9-6,8.3-3.3,12.9s8.7,6.3,12.8,3.4Z"/><path class="cls-2" d="M458.3,413.6s38.9-27.3,81.7-19.5"/><path class="cls-2" d="M463,421.7c20.8-14.5,49.3-22.8,74.5-18.5,5,.8,10.1-1.3,11.6-6.6s-1.6-10.7-6.6-11.6c-30.1-5.1-63.8,2.9-89,20.4-4.1,2.9-6,8.3-3.3,12.9s8.7,6.3,12.8,3.4Z"/></svg>