<svg id="Capa_1" data-name="Capa 1" xmlns="http://www.w3.org/2000/svg" viewBox="0 0 1080 1080"><defs><style>.cls-1{fill:#36b0c9;stroke:#fff;stroke-width:24.92px;}.cls-1,.cls-2{stroke-miterlimit:10;}.cls-2,.cls-3{fill:#05042e;}.cls-2{stroke:#05042e;stroke-width:19.88px;}</style></defs><path class="cls-1" d="M267,480.8a8.9,8.9,0,0,1,4,.2,10.1,10.1,0,0,1,3.4,1.8,9.2,9.2,0,0,1,2.4,3.1,8.6,8.6,0,0,1,.9,3.9,8.2,8.2,0,0,1-2.2,5.8,9.2,9.2,0,0,1-5.6,3.1,43.2,43.2,0,0,0-24.5,13.9,41.7,41.7,0,0,0-7.2,12,40.2,40.2,0,0,0-2.6,14.2v51.7a8.7,8.7,0,0,1-2.7,6.4,9.3,9.3,0,0,1-6.6,2.6,9,9,0,0,1-6.6-2.6,8.7,8.7,0,0,1-2.7-6.4V492.2a8.7,8.7,0,0,1,2.7-6.4,9,9,0,0,1,6.6-2.6,9.3,9.3,0,0,1,6.6,2.6,8.7,8.7,0,0,1,2.7,6.4v8.2a64.9,64.9,0,0,1,14.5-13A42.7,42.7,0,0,1,267,480.8Z"/><path class="cls-2" d="M356.2,602.2a63.7,63.7,0,0,1-24.3-4.7,62.9,62.9,0,0,1-19.9-13,60.8,60.8,0,0,1-13.4-19.3,59.5,59.5,0,0,1,0-47.3,61.7,61.7,0,0,1,33.3-32.3,63.8,63.8,0,0,1,68.6,13,60.8,60.8,0,0,1,13.4,19.3,59.5,59.5,0,0,1,0,47.3,60.8,60.8,0,0,1-13.4,19.3,63,63,0,0,1-44.3,17.7Zm0-103.3a44.1,44.1,0,0,0-17,3.4,43.5,43.5,0,0,0-13.9,9.1,42.6,42.6,0,0,0-9.4,13.5,42.2,42.2,0,0,0,0,33.2,43,43,0,0,0,9.4,13.6,45.2,45.2,0,0,0,13.9,9.1,45.7,45.7,0,0,0,34.1,0,44.5,44.5,0,0,0,14-9.1,43,43,0,0,0,9.4-13.6,42.2,42.2,0,0,0,0-33.2,43.2,43.2,0,0,0-23.4-22.6A44.2,44.2,0,0,0,356.2,498.9Z"/><path class="cls-1" d="M481.6,563.8v7.8a20,20,0,0,0,.3,3.2,12.7,12.7,0,0,0,1.3,3.2,7.5,7.5,0,0,0,2.7,2.6,8.3,8.3,0,0,0,4.5,1.1,8.6,8.6,0,0,0,6.3-2.5,8.8,8.8,0,0,1,6.4-3,8.5,8.5,0,0,1,6.6,2.3,8,8,0,0,1,3,6.1,8.8,8.8,0,0,1-2.2,6.5q-7.8,8.4-20.1,8.4c-5,0-9.2-.9-12.6-2.8a28,28,0,0,1-8.5-6.9,27,27,0,0,1-4.6-9.1,31.4,31.4,0,0,1-1.5-9.1V500.9H444.8a8.6,8.6,0,0,1-6.4-2.6,8.7,8.7,0,0,1,0-12.6,8.6,8.6,0,0,1,6.4-2.6h18.4V447.8a8.3,8.3,0,0,1,2.7-6.2,8.9,8.9,0,0,1,6.4-2.7,9,9,0,0,1,6.6,2.7,8.3,8.3,0,0,1,2.7,6.2v35.3h27.7a8.6,8.6,0,0,1,6.4,2.6,8.7,8.7,0,0,1,0,12.6,8.6,8.6,0,0,1-6.4,2.6H481.6Z"/><path class="cls-1" d="M660.2,590.5a8.7,8.7,0,0,1-2.7,6.4,9.3,9.3,0,0,1-6.6,2.6,9.2,9.2,0,0,1-6.4-2.6,8.7,8.7,0,0,1-2.7-6.4V578.6a35.9,35.9,0,0,1-5.6,7.9,36.4,36.4,0,0,1-8.8,6.9,50.1,50.1,0,0,1-12.2,4.9,64.2,64.2,0,0,1-15.9,1.9,60.7,60.7,0,0,1-56-36.2,57.5,57.5,0,0,1,0-46,61.5,61.5,0,0,1,13-18.8,62.3,62.3,0,0,1,19.3-12.7,60.7,60.7,0,0,1,23.7-4.6,52.9,52.9,0,0,1,16,2.2,56.3,56.3,0,0,1,12.6,5.6,40.7,40.7,0,0,1,8.8,7.3,34.1,34.1,0,0,1,5.1,7.4V492.1a8.3,8.3,0,0,1,2.7-6.3,8.8,8.8,0,0,1,6.4-2.6,8.9,8.9,0,0,1,6.6,2.6,8.3,8.3,0,0,1,2.7,6.3Zm-60.9-8.2a43.7,43.7,0,0,0,16.5-3.2,42.9,42.9,0,0,0,13.5-8.9,40.3,40.3,0,0,0,9.2-13.1,39.2,39.2,0,0,0,3.3-16,39.6,39.6,0,0,0-3.3-16.1,41.9,41.9,0,0,0-9.2-13.2,42.6,42.6,0,0,0-13.5-8.8,42.5,42.5,0,0,0-55.6,22,39.6,39.6,0,0,0-3.3,16.1,39.2,39.2,0,0,0,3.3,16,40.1,40.1,0,0,0,9.1,13.1,42.4,42.4,0,0,0,13.4,8.9A43.8,43.8,0,0,0,599.3,582.3Z"/><path class="cls-1" d="M865.9,527.5v3c.1,1.9.1,4.3.1,7.2s.1,6.3.1,10.1v42.7a8.7,8.7,0,0,1-2.7,6.4,9,9,0,0,1-6.6,2.6,9.2,9.2,0,0,1-6.5-2.6,9,9,0,0,1-2.6-6.4V529.8a36.8,36.8,0,0,0-2-12,30.4,30.4,0,0,0-5.9-10,28.6,28.6,0,0,0-9.2-6.8,30,30,0,0,0-12.3-2.5,27.7,27.7,0,0,0-10.3,1.9,30.5,30.5,0,0,0-15.3,13.1,28.3,28.3,0,0,0-3.8,9.9v67.1a8.7,8.7,0,0,1-2.7,6.4,9.1,9.1,0,0,1-6.5,2.6,9.2,9.2,0,0,1-6.5-2.6,8.7,8.7,0,0,1-2.7-6.4V523.4a30.2,30.2,0,0,0-3.5-9.8,28.2,28.2,0,0,0-6.2-7.9,27.1,27.1,0,0,0-8.7-5.3,31.4,31.4,0,0,0-10.8-1.9,28.2,28.2,0,0,0-11.5,2.4,30,30,0,0,0-9.5,6.6,33.5,33.5,0,0,0-6.5,9.8,31.7,31.7,0,0,0-2.5,11.9v61.3a9,9,0,0,1-2.6,6.4,9.2,9.2,0,0,1-6.5,2.6,9,9,0,0,1-6.6-2.6,8.7,8.7,0,0,1-2.7-6.4V492.3a8.7,8.7,0,0,1,2.7-6.4,9,9,0,0,1,6.6-2.6,9.2,9.2,0,0,1,6.5,2.6,9,9,0,0,1,2.6,6.4v6.1a68.6,68.6,0,0,1,5.6-6.7,40.5,40.5,0,0,1,6.8-5.6,34,34,0,0,1,8.1-4,32.6,32.6,0,0,1,9.5-1.4,54.6,54.6,0,0,1,13.5,1.5,35.9,35.9,0,0,1,18.3,11,84.7,84.7,0,0,1,6.6,8.6,47.3,47.3,0,0,1,7.4-8.7,46.5,46.5,0,0,1,9.1-6.7,47.1,47.1,0,0,1,10.6-4.3,48.3,48.3,0,0,1,11.5-1.4,48.9,48.9,0,0,1,19.8,3.7,42.8,42.8,0,0,1,14.7,10.1,45.3,45.3,0,0,1,9.3,14.8A57.9,57.9,0,0,1,865.9,527.5Z"/><path class="cls-3" d="M319.8,466.9s19.3-13.6,40.5-9.7"/><path class="cls-3" d="M322.1,470.9c10.5-7.2,24.4-11.2,37-9.2,5.9.9,8.4-8,2.5-9a62.4,62.4,0,0,0-44.2,10.1c-4.9,3.4-.2,11.5,4.7,8.1Z"/><path class="cls-3" d="M336.1,623.5s-23.4-2.3-37.1-19"/><path class="cls-3" d="M336.1,618.8h.1l-2.7-.4a58.5,58.5,0,0,1-9.1-2.5,49.3,49.3,0,0,1-22.1-14.7c-3.9-4.6-10.4,2-6.6,6.6,9.9,11.6,25.3,18.8,40.4,20.3,6,.7,6-8.7,0-9.3Z"/></svg>