<svg xmlns="http://www.w3.org/2000/svg" viewBox="0 0 38 38"><defs><style>.cls-1{fill:#b6dcfe;}.cls-2{fill:#4788c7;}.cls-3{fill:#98ccfd;}.cls-4{fill:#fff;}.cls-5{fill:#dff0fe;}.cls-6{fill:none;stroke:#4788c7;stroke-linecap:round;}</style></defs><g id="Layer_2" data-name="Layer 2"><g id="Layer_1-2" data-name="Layer 1"><path class="cls-1" d="M17,37.5A2.5,2.5,0,0,1,14.5,35V26.5h5V35A2.5,2.5,0,0,1,17,37.5Z"/><path class="cls-2" d="M19,27v8a2,2,0,0,1-4,0V27h4m1-1H14v9a3,3,0,0,0,6,0V26Z"/><path class="cls-1" d="M22,36.5A2.5,2.5,0,0,1,19.5,34V25.5h5V34A2.5,2.5,0,0,1,22,36.5Z"/><path class="cls-2" d="M24,26v8a2,2,0,0,1-4,0V26h4m1-1H19v9a3,3,0,0,0,6,0V25Z"/><path class="cls-1" d="M27,34.5A2.5,2.5,0,0,1,24.5,32V20.5h5V32A2.5,2.5,0,0,1,27,34.5Z"/><path class="cls-2" d="M29,21V32a2,2,0,0,1-4,0V21h4m1-1H24V32a3,3,0,0,0,6,0V20Z"/><path class="cls-3" d="M11,24.24,24.24.69,37.32,8.05,24.07,31.6Z"/><path class="cls-2" d="M24.44,1.36l12.2,6.88L23.88,30.92,11.68,24,24.44,1.36M24.06,0,10.31,24.42l14,7.86L38,7.86,24.06,0Z"/><path class="cls-3" d="M10.44,27.2,19.11,1.63l14.26,4.8L24.7,32Z"/><path class="cls-2" d="M19.42,2.27,32.73,6.74,24.39,31.37,11.08,26.89,19.42,2.27M18.79,1l-9,26.51L25,32.63,34,6.12,18.79,1Z"/><path class="cls-4" d="M23.45,12.25a4.85,4.85,0,0,0-6.12,3,4.81,4.81,0,0,0,3,6.11,4.84,4.84,0,0,0,6.12-3A4.81,4.81,0,0,0,23.45,12.25Zm2.19-6.13a2,2,0,1,0,1.25,2.52A2,2,0,0,0,25.64,6.12Z"/><path class="cls-5" d="M23.44,22.25a3,3,0,0,0-4.19-.69l-8,5.23a.57.57,0,0,1-.24.06.5.5,0,0,1-.38-.82L13,23.25,15,15H10.7a2,2,0,0,0-1.25.44L0,22V38H8.2a5,5,0,0,0,3.19-1.15L22.75,26.44A3,3,0,0,0,23.44,22.25Z"/><path class="cls-6" d="M.5,22.26l9.24-6.41a1.54,1.54,0,0,1,1-.35h3.8l-2,7.57-2.22,2.64a1,1,0,0,0-.15,1.06,1,1,0,0,0,.91.58,1,1,0,0,0,.47-.12l8-5.25A2.46,2.46,0,0,1,21,21.5,2.5,2.5,0,0,1,22.46,26L11.05,36.48a4.52,4.52,0,0,1-2.85,1H.5"/><path class="cls-3" d="M14.05,15l-3.4,10.92V26a.5.5,0,0,0,.62.76L14,25l1.81-10Z"/><path class="cls-2" d="M14.05,15l-3.5,11.24h0a.5.5,0,0,0,.73.54l.18-.12L15.1,15Z"/></g></g></svg>