<?xml version="1.0" encoding="utf-8"?>
<!-- Generator: Adobe Illustrator 25.0.0, SVG Export Plug-In . SVG Version: 6.00 Build 0)  -->
<svg version="1.1" id="Layer_1" xmlns="http://www.w3.org/2000/svg" xmlns:xlink="http://www.w3.org/1999/xlink" x="0px" y="0px"
	 viewBox="0 0 512 512" style="enable-background:new 0 0 512 512;" xml:space="preserve">
<style type="text/css">
	.st0{fill:#17BF2F;}
	.st1{fill:#138721;}
</style>
<path class="st0" d="M377.3,27.7V0h-30v27.7h-76.7V0h-9.9v91.7h186.8c5.4,0,9.7-4.3,9.7-9.7V35.3c0-4.2-3.4-7.6-7.6-7.6H377.3z"/>
<path class="st1" d="M260.8,0h-20.1v27.7H164V0h-30v27.7H57.6c-2,0-3.6,1.6-3.6,3.6v53.2c0,4,3.2,7.2,7.2,7.2h199.6V0z"/>
<path class="st0" d="M259.8,128.2v377.2c0,3.6,2.9,6.6,6.6,6.6h184.4c3.6,0,6.6-2.9,6.6-6.6v-369c0-8.2-6.6-14.8-14.8-14.8H266.4
	C262.7,121.7,259.8,124.6,259.8,128.2z M309.6,200.4l5.4,5.4c2.6,2.6,6.7,2.6,9.3,0l22.8-22.8c2.6-2.6,6.7-2.6,9.3,0l11.9,11.9
	c2.6,2.6,2.6,6.7,0,9.3l-44,44c-2.6,2.6-6.7,2.6-9.3,0l-26.7-26.7c-2.6-2.6-2.6-6.7,0-9.3l11.9-11.9
	C302.9,197.8,307,197.8,309.6,200.4z M366.4,449h-82.9c-3.6,0-6.6-2.9-6.6-6.6v-16.9c0-3.6,2.9-6.6,6.6-6.6h82.9
	c3.6,0,6.6,2.9,6.6,6.6v16.9C373,446.1,370.1,449,366.4,449z M366.4,392h-82.9c-3.6,0-6.6-2.9-6.6-6.6v-16.9c0-3.6,2.9-6.6,6.6-6.6
	h82.9c3.6,0,6.6,2.9,6.6,6.6v16.9C373,389.1,370.1,392,366.4,392z M366.4,335h-82.9c-3.6,0-6.6-2.9-6.6-6.6v-16.9
	c0-3.6,2.9-6.6,6.6-6.6h82.9c3.6,0,6.6,2.9,6.6,6.6v16.9C373,332.1,370.1,335,366.4,335z"/>
<path class="st1" d="M259.8,121.7H64c-5.5,0-10,4.5-10,10v367.5c0,7.1,5.7,12.8,12.8,12.8h193V121.7z M143.7,191.9l21.2-21.2
	l21.4,21.4l21.4-21.4l21.2,21.2l-21.4,21.4l21.4,21.4l-21.2,21.2l-21.4-21.4l-21.4,21.4l-21.2-21.2l21.4-21.4L143.7,191.9z
	 M234.3,449h-96v-30h96V449z M234.3,392h-96v-30h96V392z M138.3,335v-30h96v30H138.3z"/>
</svg>
