<svg xmlns="http://www.w3.org/2000/svg" viewBox="0 0 38 38"><defs><style>.cls-1{fill:#98ccfd;}.cls-2{fill:#4788c7;}.cls-3{fill:#fff;}</style></defs><g id="Layer_2" data-name="Layer 2"><g id="Layer_1-2" data-name="Layer 1"><path class="cls-1" d="M1.1,17.5H7.5V.5h23v17h6.4L19,37.3Z"/><path class="cls-2" d="M30,1V18h5.7L19,36.5,2.3,18H8V1H30m1-1H7V17H0L19,38,38,17H31V0Z"/><path class="cls-3" d="M23.9,17.7c0-4.5-7.2-4.2-7.2-6.8,0-.8.8-1.5,2.3-1.5a7,7,0,0,1,3.9,1.1V7.7A7.5,7.5,0,0,0,19.8,7V5H18.1V7a5.3,5.3,0,0,0-3,1.4A3.7,3.7,0,0,0,14,11.1c0,4.3,7.2,4.4,7.2,6.8,0,.8-1.1,1.4-2.2,1.4A8.8,8.8,0,0,1,14,18v2.9a9.5,9.5,0,0,0,4.1.9V24h1.7V21.7a4.6,4.6,0,0,0,3-1.2A3.8,3.8,0,0,0,23.9,17.7Z"/></g></g></svg>