<?xml version="1.0" encoding="utf-8"?>
<!-- Generator: Adobe Illustrator 25.0.0, SVG Export Plug-In . SVG Version: 6.00 Build 0)  -->
<svg version="1.1" id="Capa_1" xmlns="http://www.w3.org/2000/svg" xmlns:xlink="http://www.w3.org/1999/xlink" x="0px" y="0px"
	 viewBox="0 0 512 512" style="enable-background:new 0 0 512 512;" xml:space="preserve">
<style type="text/css">
	.st0{fill:#0BB537;}
	.st1{fill:#0FA53A;}
	.st2{fill:#118E32;}
</style>
<g>
	<g>
		<g>
			<path class="st0" d="M437,75C388.7,26.6,324.4,0,256,0S123.3,26.6,75,75C26.6,123.3,0,187.6,0,256s26.6,132.7,75,181
				c48.4,48.4,112.6,75,181,75c46.8,0,92.6-12.8,132.5-36.9c9.4-5.7,12.5-18,6.7-27.5c-5.7-9.4-18-12.5-27.5-6.7
				C334.1,461.2,295.5,472,256,472c-119.1,0-216-96.9-216-216S136.9,40,256,40s216,96.9,216,216c0,42.6-12.7,84-36.6,119.9
				c-6.1,9.2-3.7,21.6,5.5,27.7s21.6,3.7,27.7-5.5C497,355.7,512,306.5,512,256C512,187.6,485.4,123.3,437,75z"/>
			<path class="st1" d="M194.3,373.6c3,1.6,6.3,2.4,9.5,2.4c7.1,0,14-3.8,17.6-10.5l108.1-200c5.3-9.7,1.6-21.9-8.1-27.1
				c-9.7-5.3-21.9-1.6-27.1,8.1l-108.1,200C181,356.2,184.6,368.3,194.3,373.6z"/>
			<path class="st1" d="M223,186c0-27.6-22.4-50-50-50s-50,22.4-50,50s22.4,50,50,50S223,213.6,223,186z M173,196
				c-5.5,0-10-4.5-10-10s4.5-10,10-10s10,4.5,10,10S178.5,196,173,196z"/>
			<path class="st1" d="M338,376c27.6,0,50-22.4,50-50s-22.4-50-50-50s-50,22.4-50,50S310.4,376,338,376z M338,316
				c5.5,0,10,4.5,10,10s-4.5,10-10,10s-10-4.5-10-10S332.5,316,338,316z"/>
		</g>
	</g>
</g>
<g>
	<g>
		<g>
			<path class="st2" d="M246.3,471.8c-114.7-5-206.6-99.8-206.6-215.8S131.5,45.2,246.3,40.2v-40C181.4,2.5,120.8,28.8,74.7,75
				c-48.4,48.3-75,112.6-75,181s26.6,132.7,75,181c46.2,46.2,106.7,72.5,171.6,74.8V471.8z"/>
			<path class="st2" d="M246.3,234.8l-60.4,111.7c-5.2,9.7-1.6,21.8,8.1,27.1c3,1.6,6.3,2.4,9.5,2.4c7.1,0,14-3.8,17.6-10.5
				l25.2-46.6V234.8z"/>
			<path class="st2" d="M222.7,186c0-27.6-22.4-50-50-50s-50,22.4-50,50s22.4,50,50,50S222.7,213.6,222.7,186z M172.7,196
				c-5.5,0-10-4.5-10-10s4.5-10,10-10s10,4.5,10,10S178.2,196,172.7,196z"/>
		</g>
	</g>
</g>
</svg>
