<svg xmlns="http://www.w3.org/2000/svg" viewBox="0 0 38 38"><defs><style>.cls-1{fill:#8bb7f0;}.cls-2{fill:#4e7ab5;}.cls-3{fill:#fff;}.cls-4{fill:#f78f8f;}.cls-5{fill:#c74343;}.cls-6{fill:#66798f;}</style></defs><g id="Layer_2" data-name="Layer 2"><g id="Layer_1-2" data-name="Layer 1"><path class="cls-1" d="M19,37.5A18.5,18.5,0,1,1,37.5,19,18.5,18.5,0,0,1,19,37.5Z"/><path class="cls-2" d="M19,1A18,18,0,1,1,1,19,18.1,18.1,0,0,1,19,1M5.6,5.6A18.7,18.7,0,0,0,0,19,19,19,0,1,0,24.6.9Z"/><path class="cls-3" d="M19,34.5A15.5,15.5,0,1,1,34.5,19,15.6,15.6,0,0,1,19,34.5Z"/><path class="cls-2" d="M19,4A15,15,0,1,1,4,19,15,15,0,0,1,19,4m0-1A16,16,0,1,0,35,19,16,16,0,0,0,19,3Z"/><path class="cls-3" d="M5.6,5.6h0L19,19V9a6,6,0,0,0,6-6A5.4,5.4,0,0,0,24.6.8,21,21,0,0,0,19,0,18.7,18.7,0,0,0,5.6,5.6Z"/><path class="cls-4" d="M19,.5A2.5,2.5,0,0,0,16.5,3a2.5,2.5,0,0,0,5,0A2.5,2.5,0,0,0,19,.5Z"/><path class="cls-5" d="M19,1a2,2,0,1,1-2,2,2,2,0,0,1,2-2m0-1a2.9,2.9,0,0,0-3,3,3,3,0,0,0,6,0,2.9,2.9,0,0,0-3-3Z"/><path class="cls-6" d="M20.4,17.6a2.1,2.1,0,0,1-2.9,2.9c-.8-.8-8-10.9-8-10.9S19.6,16.8,20.4,17.6Z"/></g></g></svg>