<?xml version="1.0" encoding="utf-8"?>
<!-- Generator: Adobe Illustrator 25.0.0, SVG Export Plug-In . SVG Version: 6.00 Build 0)  -->
<svg version="1.1" id="Layer_1" xmlns="http://www.w3.org/2000/svg" xmlns:xlink="http://www.w3.org/1999/xlink" x="0px" y="0px"
	 viewBox="0 0 512 512" style="enable-background:new 0 0 512 512;" xml:space="preserve">
<style type="text/css">
	.st0{fill:url(#SVGID_1_);}
</style>
<linearGradient id="SVGID_1_" gradientUnits="userSpaceOnUse" x1="0" y1="822" x2="512" y2="822" gradientTransform="matrix(1 0 0 1 0 -566)">
	<stop  offset="0" style="stop-color:#0F8525"/>
	<stop  offset="0.2841" style="stop-color:#0E8825"/>
	<stop  offset="0.5327" style="stop-color:#0B9325"/>
	<stop  offset="0.7671" style="stop-color:#07A526"/>
	<stop  offset="0.9928" style="stop-color:#00BE27"/>
	<stop  offset="1" style="stop-color:#00BF27"/>
</linearGradient>
<path class="st0" d="M314.5,310.4L294,246.8l-0.1-0.4c-6.6-18.8-24.2-31.4-43.9-31.4H101.8c-19.7,0-37.3,12.6-43.8,31.4l-20.7,64.2
	c-7.4,3.1-14.1,7.7-19.9,13.7C6.2,335.9,0,351,0,367v105c0,22.1,17.9,40,40,40c20.4,0,37.2-15.3,39.7-35h192.6
	c2.5,19.7,19.3,35,39.7,35c20.9,0,40-16.7,40-35V366C352,340.9,336.5,319.3,314.5,310.4z M101.8,255H250c2.6,0,5,1.8,6,4.4
	l15.1,46.6H80.8l15-46.6C96.8,256.8,99.2,255,101.8,255z M312,417c0,11-9,20-20,20H60c-11,0-20-9-20-20v-50c0-11.4,9.2-21,20-21h232
	c11,0,20,9,20,20V417z M131,371h91v40h-91V371z M287,391c0,11-9,20-20,20s-20-9-20-20s9-20,20-20S287,379.9,287,391z M106,391
	c0,11-9,20-20,20s-20-9-20-20s9-20,20-20S106,379.9,106,391z M427,280c-11,0-20-9-20-20s9-20,20-20s20,9,20,20S438,280,427,280z
	 M126,149c11,0,20,9,20,20s-9,20-20,20s-20-9-20-20C106,157.9,115,149,126,149z M40.3,200.9C40.1,199,40,197,40,195v-46
	c0-16,6.2-31.1,17.3-42.7c5.9-6.1,12.7-10.7,20.1-13.8L98,31.3C104.6,12.6,122.2,0,141.8,0H290c19.6,0,37.2,12.6,43.8,31.3l4.6,16.7
	h-42.6c-1.1-2.4-3.4-8-5.8-8H141.8c-2.6,0-5.1,1.9-6.1,4.6l-0.1,0.2l-14,43.2h67.5c-3.6,5.6-6.6,11.7-8.9,18.2l-0.2,0.7l-6.8,21.1
	H100c-10.8,0-20,9.6-20,21v28.9C64.9,181.8,51.2,189.9,40.3,200.9z M512,235v111c0,18.3-19.1,35-40,35c-20.4,0-37.2-15.3-39.7-35
	H390c-3-14.8-9.3-28.4-18-40h80c11,0,20-9,20-20v-51c0-11-9-20-20-20H322.8c-15.7-24.5-42.9-40-72.8-40h180.7l-14.6-42.5
	c-0.9-2.6-3.4-4.5-6.1-4.5H261.8c-2.6,0-5.1,1.9-6.1,4.5L241.2,176h-42.3l19.1-56.6c6.6-18.8,24.2-31.4,43.8-31.4H410
	c19.7,0,37.3,12.6,43.8,31.4l20.6,60C496.4,188.3,512,209.8,512,235z M346.8,280l-12.9-40H382v40H346.8z"/>
</svg>
