<svg xmlns="http://www.w3.org/2000/svg" viewBox="0 0 36 29"><defs><style>.cls-1{fill:#b6dcfe;}.cls-2{fill:#4788c7;}.cls-3{fill:#98ccfd;}.cls-4{fill:#fff;}.cls-5{fill:#dff0fe;}</style></defs><g id="Layer_2" data-name="Layer 2"><g id="Layer_1-2" data-name="Layer 1"><path class="cls-1" d="M3.5,28.5a.9.9,0,0,1-1-1v-6h5v6a.9.9,0,0,1-1,1Z"/><path class="cls-2" d="M7,22v5.5a.5.5,0,0,1-.5.5h-3a.5.5,0,0,1-.5-.5V22H7m1-1H2v6.5A1.5,1.5,0,0,0,3.5,29h3A1.5,1.5,0,0,0,8,27.5V21Z"/><path class="cls-3" d="M2,14.5A1.5,1.5,0,0,1,.5,13V12A1.5,1.5,0,0,1,2,10.5H34A1.5,1.5,0,0,1,35.5,12v1A1.5,1.5,0,0,1,34,14.5Z"/><path class="cls-2" d="M34,11a.9.9,0,0,1,1,1v1a.9.9,0,0,1-1,1H2a.9.9,0,0,1-1-1V12a.9.9,0,0,1,1-1H34m0-1H2a2,2,0,0,0-2,2v1a2,2,0,0,0,2,2H34a2,2,0,0,0,2-2V12a2,2,0,0,0-2-2Z"/><path class="cls-1" d="M29.5,28.5a.9.9,0,0,1-1-1v-6h5v6a.9.9,0,0,1-1,1Z"/><path class="cls-2" d="M33,22v5.5a.5.5,0,0,1-.5.5h-3a.5.5,0,0,1-.5-.5V22h4m1-1H28v6.5A1.5,1.5,0,0,0,29.5,29h3A1.5,1.5,0,0,0,34,27.5V21Z"/><path class="cls-3" d="M5,25.5A2.5,2.5,0,0,1,2.5,23V13.9l1-2.6L5.9,2.4A2.6,2.6,0,0,1,8.3.5H27.7a2.6,2.6,0,0,1,2.4,1.9l2.3,8.8,1.1,2.7V23A2.5,2.5,0,0,1,31,25.5Z"/><path class="cls-2" d="M27.7,1a1.9,1.9,0,0,1,1.9,1.5L32,11.4h0L33,14v9a2,2,0,0,1-2,2H5a2,2,0,0,1-2-2V14l1-2.5H4L6.4,2.5A1.9,1.9,0,0,1,8.3,1H27.7m0-1H8.3A3,3,0,0,0,5.4,2.2L3.1,11.1,2,13.8V23a2.9,2.9,0,0,0,3,3H31a2.9,2.9,0,0,0,3-3V13.8l-1.1-2.7L30.6,2.2A3,3,0,0,0,27.7,0Z"/><path class="cls-4" d="M29,15a2,2,0,1,0,2,2A2,2,0,0,0,29,15ZM7,15a2,2,0,1,0,2,2A2,2,0,0,0,7,15Z"/><path class="cls-5" d="M10.6,25.5l1-5.8a1.6,1.6,0,0,1,1.5-1.2h9.8a1.6,1.6,0,0,1,1.5,1.2l1,5.8Z"/><path class="cls-2" d="M22.9,19a1,1,0,0,1,1,.8l.9,5.2H11.2l.9-5.2a1,1,0,0,1,1-.8h9.8m0-1H13.1a1.9,1.9,0,0,0-1.9,1.6L10,26H26l-1.2-6.4A1.9,1.9,0,0,0,22.9,18Z"/><path class="cls-3" d="M2,11H34v3H2Z"/><path class="cls-5" d="M3.7,10.5,5.9,2.4A2.6,2.6,0,0,1,8.3.5H27.7a2.6,2.6,0,0,1,2.4,1.9l2.2,8.1Z"/><path class="cls-2" d="M27.7,1a1.9,1.9,0,0,1,1.9,1.5l2,7.5H4.4l2-7.5A1.9,1.9,0,0,1,8.3,1H27.7m0-1H8.3A3,3,0,0,0,5.4,2.2L3.1,11H32.9L30.6,2.2A3,3,0,0,0,27.7,0Z"/></g></g></svg>