<svg xmlns="http://www.w3.org/2000/svg" viewBox="0 0 3284 2182.7"><defs><style>.cls-1,.cls-12,.cls-13,.cls-4{fill:#05042e;}.cls-10,.cls-2,.cls-5{fill:#ff7900;}.cls-3,.cls-7,.cls-8{fill:#201747;}.cls-3,.cls-6,.cls-7{stroke:#fff;}.cls-10,.cls-12,.cls-13,.cls-3,.cls-4,.cls-5,.cls-6,.cls-7{stroke-miterlimit:10;}.cls-3{stroke-width:0.93px;}.cls-4{stroke:#201747;stroke-width:24.92px;}.cls-10,.cls-5{stroke:#ff7900;}.cls-5{stroke-width:19.94px;}.cls-11,.cls-6{fill:#36b0c9;}.cls-6{stroke-width:24.92px;}.cls-7{stroke-width:19.94px;}.cls-9{fill:#fff;}.cls-10,.cls-12{stroke-width:40.15px;}.cls-12,.cls-13{stroke:#05042e;}.cls-13{stroke-width:19.88px;}</style></defs><g id="Capa_3" data-name="Capa 3"><rect class="cls-1" y="1102.7" width="1080" height="1080"/></g><g id="Capa_4" data-name="Capa 4"><rect class="cls-2" x="2200" y="1101.9" width="1084" height="1080"/></g><g id="Capa_2" data-name="Capa 2"><rect class="cls-3" x="1095.7" y="0.5" width="1088.6" height="1080"/></g><g id="Capa_5" data-name="Capa 5"><rect class="cls-2" x="1098" y="1102.7" width="1084" height="1080"/></g><g id="Capa_1" data-name="Capa 1"><path class="cls-4" d="M266.2,506.7a8.9,8.9,0,0,1,4,.2,10.1,10.1,0,0,1,3.4,1.8,9.2,9.2,0,0,1,2.4,3.1,8.6,8.6,0,0,1,.9,3.9,8.2,8.2,0,0,1-2.2,5.8,9.2,9.2,0,0,1-5.6,3.1,43.2,43.2,0,0,0-24.5,13.9,39.6,39.6,0,0,0-7.2,12,40.2,40.2,0,0,0-2.6,14.2v51.7a8.7,8.7,0,0,1-2.7,6.4,9.3,9.3,0,0,1-6.6,2.6,9,9,0,0,1-6.6-2.6,8.7,8.7,0,0,1-2.7-6.4V518.1a8.7,8.7,0,0,1,2.7-6.4,9,9,0,0,1,6.6-2.6,9.3,9.3,0,0,1,6.6,2.6,8.7,8.7,0,0,1,2.7,6.4v8.2a68,68,0,0,1,14.5-13.1A44.1,44.1,0,0,1,266.2,506.7Z" transform="translate(0 2.7)"/><path class="cls-5" d="M355.7,628.1a62.9,62.9,0,0,1-24.5-4.7A63,63,0,0,1,297.8,591a60,60,0,0,1-4.9-23.8,59.1,59.1,0,0,1,4.9-23.7,63.4,63.4,0,0,1,115.7,0,59.1,59.1,0,0,1,4.9,23.7,60,60,0,0,1-4.9,23.8,63,63,0,0,1-33.4,32.4A62.8,62.8,0,0,1,355.7,628.1Zm0-103.6a42.5,42.5,0,0,0-17.1,3.4,44,44,0,0,0-14,9.1,43,43,0,0,0-9.4,13.6,42.5,42.5,0,0,0,0,33.3,43,43,0,0,0,9.4,13.6,45.7,45.7,0,0,0,14,9.1,44.7,44.7,0,0,0,34.2,0,45.7,45.7,0,0,0,14-9.1,43,43,0,0,0,9.4-13.6,41.4,41.4,0,0,0,0-33.3,43,43,0,0,0-9.4-13.6,44,44,0,0,0-14-9.1A42.5,42.5,0,0,0,355.7,524.5Z" transform="translate(0 2.7)"/><path class="cls-4" d="M481.2,589.7v7.8a12,12,0,0,0,.4,3.1,7.9,7.9,0,0,0,1.3,3.3,7.2,7.2,0,0,0,2.6,2.6,8.8,8.8,0,0,0,4.5,1,8.6,8.6,0,0,0,6.4-2.4,9.2,9.2,0,0,1,12.9-.7,8.5,8.5,0,0,1,3.1,6.1,8.9,8.9,0,0,1-2.3,6.5q-7.8,8.4-20.1,8.4a26.1,26.1,0,0,1-12.6-2.8,26.4,26.4,0,0,1-8.4-6.9,30.3,30.3,0,0,1-4.7-9.1,31.9,31.9,0,0,1-1.5-9.1V526.8H444.5a8.8,8.8,0,0,1-6.5-2.6,8.7,8.7,0,0,1,0-12.6,8.8,8.8,0,0,1,6.5-2.6h18.3V473.7a8.4,8.4,0,0,1,2.8-6.2,8.7,8.7,0,0,1,6.4-2.7,8.9,8.9,0,0,1,6.5,2.7,8.3,8.3,0,0,1,2.7,6.2V509H509a8.9,8.9,0,1,1,0,17.8H481.2Z" transform="translate(0 2.7)"/><path class="cls-4" d="M659.8,616.4a8.7,8.7,0,0,1-2.7,6.4,9.2,9.2,0,0,1-6.5,2.6,9,9,0,0,1-6.4-2.6,8.4,8.4,0,0,1-2.8-6.4V604.5a35.3,35.3,0,0,1-5.5,7.9,36.4,36.4,0,0,1-8.8,6.9,49.3,49.3,0,0,1-12.3,4.9,63,63,0,0,1-15.9,1.9,60.7,60.7,0,0,1-56-36.2,57.5,57.5,0,0,1,0-46,61.5,61.5,0,0,1,13-18.8,62.7,62.7,0,0,1,19.4-12.7,60.5,60.5,0,0,1,23.6-4.6A53.6,53.6,0,0,1,615,510a55.5,55.5,0,0,1,12.5,5.6,41.4,41.4,0,0,1,8.9,7.3,33.2,33.2,0,0,1,5,7.4V518a8.1,8.1,0,0,1,2.8-6.3,8.6,8.6,0,0,1,6.4-2.6,8.8,8.8,0,0,1,6.5,2.6,8.3,8.3,0,0,1,2.7,6.3Zm-60.9-8.2A42.9,42.9,0,0,0,629,596.1a40.1,40.1,0,0,0,9.1-13.1,39.2,39.2,0,0,0,3.3-16,39.6,39.6,0,0,0-3.3-16.1,41.6,41.6,0,0,0-9.1-13.2,43.1,43.1,0,0,0-13.6-8.8,43.3,43.3,0,0,0-46.5,8.8,43.2,43.2,0,0,0-9.1,13.2,39.6,39.6,0,0,0-3.3,16.1,39.2,39.2,0,0,0,3.3,16,42.4,42.4,0,0,0,22.6,22A43.3,43.3,0,0,0,598.9,608.2Z" transform="translate(0 2.7)"/><path class="cls-4" d="M865.5,553.4c0,.1,0,1.2.1,3s0,4.3.1,7.2v52.8a9,9,0,0,1-2.6,6.4,9.3,9.3,0,0,1-6.6,2.6,9.1,9.1,0,0,1-6.5-2.6,8.7,8.7,0,0,1-2.7-6.4V555.7a34.4,34.4,0,0,0-2-12,30.2,30.2,0,0,0-5.8-10,28.6,28.6,0,0,0-9.2-6.8,30,30,0,0,0-12.3-2.5,27,27,0,0,0-10.3,1.9,28.8,28.8,0,0,0-8.8,5.2,29.9,29.9,0,0,0-6.6,7.9,28.2,28.2,0,0,0-3.7,9.9v67.1a8.7,8.7,0,0,1-2.7,6.4,9.2,9.2,0,0,1-6.5,2.6,9.1,9.1,0,0,1-6.5-2.6,8.7,8.7,0,0,1-2.7-6.4V549.3a35.7,35.7,0,0,0-3.5-9.8,30.1,30.1,0,0,0-6.2-7.9,29.4,29.4,0,0,0-8.7-5.3,31.4,31.4,0,0,0-10.8-1.9,27.9,27.9,0,0,0-11.5,2.4,30,30,0,0,0-9.5,6.6,32.4,32.4,0,0,0-6.5,9.7,30.7,30.7,0,0,0-2.5,12v61.3a8.7,8.7,0,0,1-2.7,6.4,9.1,9.1,0,0,1-6.5,2.6,9.3,9.3,0,0,1-6.6-2.6,9,9,0,0,1-2.6-6.4V518.2a9,9,0,0,1,2.6-6.4,9.3,9.3,0,0,1,6.6-2.6,9.1,9.1,0,0,1,6.5,2.6,8.7,8.7,0,0,1,2.7,6.4v6.1a67.3,67.3,0,0,1,5.5-6.7,41.2,41.2,0,0,1,6.9-5.6,30.6,30.6,0,0,1,8.1-4,31.9,31.9,0,0,1,9.4-1.4,54.6,54.6,0,0,1,13.5,1.5,38.4,38.4,0,0,1,10.3,4.3,37,37,0,0,1,8,6.7,72.9,72.9,0,0,1,6.7,8.6,46.9,46.9,0,0,1,16.5-15.4,48.3,48.3,0,0,1,10.5-4.3,52.4,52.4,0,0,1,31.4,2.3,43.4,43.4,0,0,1,14.6,10.1,44.3,44.3,0,0,1,9.3,14.8A57.9,57.9,0,0,1,865.5,553.4Z" transform="translate(0 2.7)"/><path class="cls-2" d="M319,492.8s19.3-13.6,40.5-9.7" transform="translate(0 2.7)"/><path class="cls-2" d="M321.3,496.8c10.5-7.2,24.4-11.2,37-9.2,5.9,1,8.4-8,2.5-9a62.4,62.4,0,0,0-44.2,10.1c-4.9,3.4-.2,11.5,4.7,8.1Z" transform="translate(0 2.7)"/><path class="cls-2" d="M335.3,649.4s-23.4-2.3-37.1-19" transform="translate(0 2.7)"/><path class="cls-2" d="M335.3,644.7c-.5,0-.6-.1.1,0l-2.7-.4a72.1,72.1,0,0,1-9.1-2.5,50.1,50.1,0,0,1-22.1-14.7c-3.9-4.6-10.5,2-6.6,6.6,9.9,11.7,25.3,18.8,40.4,20.4,6,.6,6-8.8,0-9.4Z" transform="translate(0 2.7)"/><path class="cls-6" d="M1352,506.7a9.4,9.4,0,0,1,4.1.2,9.6,9.6,0,0,1,3.3,1.8,9.2,9.2,0,0,1,2.4,3.1,8.6,8.6,0,0,1,.9,3.9,8.2,8.2,0,0,1-2.2,5.8,9.2,9.2,0,0,1-5.6,3.1,42.7,42.7,0,0,0-13.6,5,44.7,44.7,0,0,0-10.9,8.9,44,44,0,0,0-7.2,12,40.2,40.2,0,0,0-2.6,14.2v51.7a8.7,8.7,0,0,1-2.7,6.4,9.3,9.3,0,0,1-6.6,2.6,9,9,0,0,1-6.6-2.6,8.7,8.7,0,0,1-2.7-6.4V518.1a8.7,8.7,0,0,1,2.7-6.4,9,9,0,0,1,6.6-2.6,9.3,9.3,0,0,1,6.6,2.6,8.7,8.7,0,0,1,2.7,6.4v8.2a64.9,64.9,0,0,1,14.5-13A43.3,43.3,0,0,1,1352,506.7Z" transform="translate(0 2.7)"/><path class="cls-7" d="M1441.5,628.1a62.5,62.5,0,0,1-44.4-17.8,59.2,59.2,0,0,1-13.4-19.3,58.3,58.3,0,0,1-4.9-23.8,57.5,57.5,0,0,1,4.9-23.7,60.7,60.7,0,0,1,13.4-19.4,64.1,64.1,0,0,1,19.9-13,65.9,65.9,0,0,1,48.9,0,61.2,61.2,0,0,1,33.4,32.4,57.5,57.5,0,0,1,4.9,23.7,58.3,58.3,0,0,1-4.9,23.8,62.7,62.7,0,0,1-57.8,37.1Zm0-103.6a42.5,42.5,0,0,0-17.1,3.4,44,44,0,0,0-14,9.1,44.7,44.7,0,0,0-9.4,13.6,42.5,42.5,0,0,0,0,33.3,44.7,44.7,0,0,0,9.4,13.6,45.7,45.7,0,0,0,14,9.1,45,45,0,0,0,48.2-9.1,43,43,0,0,0,9.4-13.6,41.4,41.4,0,0,0,0-33.3,42.9,42.9,0,0,0-23.4-22.7A42.5,42.5,0,0,0,1441.5,524.5Z" transform="translate(0 2.7)"/><path class="cls-6" d="M1567,589.7v7.8a18.8,18.8,0,0,0,.4,3.1,7.9,7.9,0,0,0,1.3,3.3,7.2,7.2,0,0,0,2.6,2.6,8.8,8.8,0,0,0,4.5,1,8.6,8.6,0,0,0,6.4-2.4,8.6,8.6,0,0,1,6.3-3,8.3,8.3,0,0,1,6.6,2.3,8.5,8.5,0,0,1,3.1,6.1,8.9,8.9,0,0,1-2.3,6.5q-7.8,8.4-20.1,8.4a26.1,26.1,0,0,1-12.6-2.8,28.8,28.8,0,0,1-8.4-6.9,30.3,30.3,0,0,1-4.7-9.1,31.5,31.5,0,0,1-1.4-9.1V526.8h-18.4a8.8,8.8,0,0,1-6.5-2.6,8.7,8.7,0,0,1,0-12.6,8.8,8.8,0,0,1,6.5-2.6h18.4V473.7a8.3,8.3,0,0,1,2.7-6.2,9.1,9.1,0,0,1,12.9,0,8.3,8.3,0,0,1,2.7,6.2V509h27.8a8.9,8.9,0,1,1,0,17.8H1567Z" transform="translate(0 2.7)"/><path class="cls-6" d="M1745.6,616.4a8.7,8.7,0,0,1-2.7,6.4,9.3,9.3,0,0,1-12.9,0,8.7,8.7,0,0,1-2.7-6.4V604.5a39.6,39.6,0,0,1-5.6,7.9,36.4,36.4,0,0,1-8.8,6.9,49.3,49.3,0,0,1-12.3,4.9,63,63,0,0,1-15.9,1.9,60.6,60.6,0,0,1-23.6-4.7,59.5,59.5,0,0,1-19.3-12.7,60.6,60.6,0,0,1-13.1-18.8,57.5,57.5,0,0,1,0-46,61.8,61.8,0,0,1,13.1-18.8,60.9,60.9,0,0,1,42.9-17.3,52.6,52.6,0,0,1,28.6,7.8,39.1,39.1,0,0,1,8.9,7.3,38,38,0,0,1,5.1,7.4V518a8.3,8.3,0,0,1,2.7-6.3,9.3,9.3,0,0,1,12.9,0,8.3,8.3,0,0,1,2.7,6.3Zm-60.9-8.2a42.4,42.4,0,0,0,30.1-12.1,40.1,40.1,0,0,0,9.1-13.1,39.2,39.2,0,0,0,3.4-16,39.7,39.7,0,0,0-3.4-16.1,41.6,41.6,0,0,0-9.1-13.2,43.7,43.7,0,0,0-13.5-8.8,43.2,43.2,0,0,0-33.1,0,43.7,43.7,0,0,0-13.5,8.8,45.1,45.1,0,0,0-9.1,13.2,39.6,39.6,0,0,0-3.3,16.1,39.2,39.2,0,0,0,3.3,16,43.3,43.3,0,0,0,9.1,13.1,42.4,42.4,0,0,0,30,12.1Z" transform="translate(0 2.7)"/><path class="cls-6" d="M1951.3,553.4c0,.1,0,1.2.1,3s0,4.3.1,7.2v52.8a8.6,8.6,0,0,1-2.6,6.4,9.3,9.3,0,0,1-6.6,2.6,9.1,9.1,0,0,1-6.5-2.6,8.6,8.6,0,0,1-2.6-6.4V555.7a34.4,34.4,0,0,0-2.1-12,30.2,30.2,0,0,0-5.8-10,28.6,28.6,0,0,0-9.2-6.8,30,30,0,0,0-12.3-2.5,27.3,27.3,0,0,0-10.3,1.9,28.8,28.8,0,0,0-8.8,5.2,29.9,29.9,0,0,0-6.6,7.9,30.2,30.2,0,0,0-3.7,9.9v67.1a8.7,8.7,0,0,1-2.7,6.4,9.2,9.2,0,0,1-6.5,2.6,9.1,9.1,0,0,1-6.5-2.6,8.7,8.7,0,0,1-2.7-6.4V549.3a32.7,32.7,0,0,0-3.5-9.8,30.1,30.1,0,0,0-6.2-7.9,29.4,29.4,0,0,0-8.7-5.3,31.4,31.4,0,0,0-10.8-1.9,27.9,27.9,0,0,0-11.5,2.4,30,30,0,0,0-9.5,6.6,32.4,32.4,0,0,0-6.5,9.7,30.7,30.7,0,0,0-2.5,12v61.3a8.7,8.7,0,0,1-2.7,6.4,8.9,8.9,0,0,1-6.5,2.6,9.3,9.3,0,0,1-6.6-2.6,9,9,0,0,1-2.6-6.4V518.2a9,9,0,0,1,2.6-6.4,9.3,9.3,0,0,1,6.6-2.6,8.9,8.9,0,0,1,6.5,2.6,8.7,8.7,0,0,1,2.7,6.4v6.1a56.8,56.8,0,0,1,5.6-6.7,36.9,36.9,0,0,1,6.8-5.6,30,30,0,0,1,17.6-5.4,53.2,53.2,0,0,1,13.4,1.5,38.4,38.4,0,0,1,10.3,4.3,37,37,0,0,1,8,6.7,72.9,72.9,0,0,1,6.7,8.6,46.8,46.8,0,0,1,7.3-8.7,50.4,50.4,0,0,1,9.2-6.7,48.3,48.3,0,0,1,10.5-4.3,52.4,52.4,0,0,1,31.4,2.3,42.4,42.4,0,0,1,14.6,10.1,44.3,44.3,0,0,1,9.3,14.8A55.2,55.2,0,0,1,1951.3,553.4Z" transform="translate(0 2.7)"/><path class="cls-8" d="M1404.8,492.8s19.3-13.6,40.5-9.7" transform="translate(0 2.7)"/><path class="cls-9" d="M1407.1,496.8c10.5-7.2,24.4-11.2,37-9.2,5.9,1,8.4-8,2.5-9a62.4,62.4,0,0,0-44.2,10.1c-4.9,3.4-.2,11.5,4.7,8.1Z" transform="translate(0 2.7)"/><path class="cls-8" d="M1421.1,649.4s-23.4-2.3-37.1-19" transform="translate(0 2.7)"/><path class="cls-9" d="M1421.1,644.7c-.5,0-.6-.1.1,0l-2.7-.4a66.3,66.3,0,0,1-9-2.5,49.9,49.9,0,0,1-22.2-14.7c-3.9-4.6-10.4,2-6.6,6.6,9.9,11.7,25.3,18.8,40.4,20.4,6,.6,6-8.8,0-9.4Z" transform="translate(0 2.7)"/><path class="cls-2" d="M495.7,1807.3s-47.3-4.6-74.8-38.3" transform="translate(0 2.7)"/><path class="cls-2" d="M495.7,1797.8c-2.6-.2,2.1.4,0,.1l-5.3-1a133.4,133.4,0,0,1-18.8-5c-16.9-5.9-32.4-15.6-44-29.6-3.3-3.9-10-3.3-13.3,0s-3.3,9.4,0,13.3c19.5,23.6,51.1,38.1,81.4,41.1,5,.5,9.4-4.7,9.4-9.4s-4.3-8.9-9.4-9.5Z" transform="translate(0 2.7)"/><path class="cls-10" d="M531.7,1764.5a126.9,126.9,0,0,1-49.2-9.6,129,129,0,0,1-40.2-26.3,123.9,123.9,0,0,1-27-39,120.1,120.1,0,0,1,0-95.5,123.9,123.9,0,0,1,27-39,129,129,0,0,1,40.2-26.3,128.8,128.8,0,0,1,138.6,26.3,122.6,122.6,0,0,1,27.1,39,121.2,121.2,0,0,1,0,95.5,122.6,122.6,0,0,1-27.1,39,127.7,127.7,0,0,1-89.4,35.9Zm0-208.7a88.2,88.2,0,0,0-62.4,25.2,85.4,85.4,0,0,0-19,27.3,85,85,0,0,0,0,67.1,85.4,85.4,0,0,0,19,27.3,89,89,0,0,0,28,18.4,88,88,0,0,0,34.4,6.8,89.8,89.8,0,0,0,62.7-25.2,85.4,85.4,0,0,0,19-27.3,85,85,0,0,0,0-67.1,85.4,85.4,0,0,0-19-27.3,89.7,89.7,0,0,0-28.1-18.5A90.8,90.8,0,0,0,531.7,1555.8Z" transform="translate(0 2.7)"/><path class="cls-11" d="M458.3,1491.8s38.9-27.2,81.7-19.4" transform="translate(0 2.7)"/><path class="cls-9" d="M463,1500c20.8-14.5,49.3-22.9,74.5-18.5,5,.8,10.1-1.4,11.6-6.6s-1.6-10.7-6.6-11.6c-30.1-5.1-63.8,2.9-89,20.4-4.1,2.9-6,8.3-3.3,12.9s8.7,6.3,12.8,3.4Z" transform="translate(0 2.7)"/><path class="cls-2" d="M458.3,1491.8s38.9-27.2,81.7-19.4" transform="translate(0 2.7)"/><path class="cls-2" d="M463,1500c20.8-14.5,49.3-22.9,74.5-18.5,5,.8,10.1-1.4,11.6-6.6s-1.6-10.7-6.6-11.6c-30.1-5.1-63.8,2.9-89,20.4-4.1,2.9-6,8.3-3.3,12.9s8.7,6.3,12.8,3.4Z" transform="translate(0 2.7)"/><path class="cls-12" d="M1631.7,1786.2a127.7,127.7,0,0,1-89.4-35.9,123.9,123.9,0,0,1-27-39,120.1,120.1,0,0,1,0-95.5,123.9,123.9,0,0,1,27-39,129,129,0,0,1,40.2-26.3,128.8,128.8,0,0,1,138.6,26.3,122.6,122.6,0,0,1,27.1,39,121.2,121.2,0,0,1,0,95.5,122.6,122.6,0,0,1-27.1,39,125.1,125.1,0,0,1-40.2,26.3A126.9,126.9,0,0,1,1631.7,1786.2Zm0-208.7a88,88,0,0,0-34.4,6.8,89,89,0,0,0-28,18.4,85.4,85.4,0,0,0-19,27.3,85,85,0,0,0,0,67.1,85.4,85.4,0,0,0,19,27.3,89.3,89.3,0,0,0,62.4,25.2,89,89,0,0,0,34.6-6.8,87.8,87.8,0,0,0,28.1-18.4,85.4,85.4,0,0,0,19-27.3,85,85,0,0,0,0-67.1,85.4,85.4,0,0,0-19-27.3,89.8,89.8,0,0,0-62.7-25.2Z" transform="translate(0 2.7)"/><path class="cls-1" d="M1595.7,1829s-47.3-4.6-74.8-38.3" transform="translate(0 2.7)"/><path class="cls-1" d="M1595.7,1819.6c-2.6-.3,2.1.4,0,0l-5.3-.9a148.9,148.9,0,0,1-18.8-5.1c-16.9-5.9-32.4-15.6-44-29.5-3.3-4-10-3.4-13.3,0s-3.3,9.3,0,13.3c19.5,23.5,51.1,38,81.4,41,5,.5,9.4-4.7,9.4-9.4s-4.3-8.9-9.4-9.4Z" transform="translate(0 2.7)"/><path class="cls-11" d="M1558.3,1513.6s38.9-27.3,81.7-19.5" transform="translate(0 2.7)"/><path class="cls-9" d="M1563,1521.7c20.8-14.5,49.3-22.8,74.5-18.5,5,.9,10.1-1.3,11.6-6.6s-1.6-10.7-6.6-11.6c-30.1-5.1-63.8,2.9-89,20.4-4.1,2.9-6,8.3-3.3,12.9s8.7,6.3,12.8,3.4Z" transform="translate(0 2.7)"/><path class="cls-1" d="M1558.3,1513.6s38.9-27.3,81.7-19.5" transform="translate(0 2.7)"/><path class="cls-1" d="M1563,1521.7c20.8-14.5,49.3-22.8,74.5-18.5,5,.8,10.1-1.3,11.6-6.6s-1.6-10.7-6.6-11.6c-30.1-5.1-63.8,2.9-89,20.4-4.1,2.9-6,8.3-3.3,12.9s8.7,6.3,12.8,3.4Z" transform="translate(0 2.7)"/><path class="cls-6" d="M2467,1580.8a8.9,8.9,0,0,1,4,.2,10.1,10.1,0,0,1,3.4,1.8,9.2,9.2,0,0,1,2.4,3.1,8.6,8.6,0,0,1,.9,3.9,8.2,8.2,0,0,1-2.2,5.8,9.2,9.2,0,0,1-5.6,3.1,43.2,43.2,0,0,0-24.5,13.9,41.7,41.7,0,0,0-7.2,12,40.2,40.2,0,0,0-2.6,14.2v51.7a8.7,8.7,0,0,1-2.7,6.4,9.3,9.3,0,0,1-6.6,2.6,9,9,0,0,1-6.6-2.6,8.7,8.7,0,0,1-2.7-6.4v-98.3a8.7,8.7,0,0,1,2.7-6.4,9,9,0,0,1,6.6-2.6,9.3,9.3,0,0,1,6.6,2.6,8.7,8.7,0,0,1,2.7,6.4v8.2a64.9,64.9,0,0,1,14.5-13A42.7,42.7,0,0,1,2467,1580.8Z" transform="translate(0 2.7)"/><path class="cls-13" d="M2556.2,1702.2a63.7,63.7,0,0,1-24.3-4.7,62.9,62.9,0,0,1-19.9-13,60.8,60.8,0,0,1-13.4-19.3,59.5,59.5,0,0,1,0-47.3,61.7,61.7,0,0,1,33.3-32.3,63.8,63.8,0,0,1,68.6,13,60.8,60.8,0,0,1,13.4,19.3,59.5,59.5,0,0,1,0,47.3,60.8,60.8,0,0,1-13.4,19.3,63,63,0,0,1-44.3,17.7Zm0-103.3a44.1,44.1,0,0,0-17,3.4,43.5,43.5,0,0,0-13.9,9.1,42.6,42.6,0,0,0-9.4,13.5,42.2,42.2,0,0,0,0,33.2,43,43,0,0,0,9.4,13.6,45.2,45.2,0,0,0,13.9,9.1,45.7,45.7,0,0,0,34.1,0,44.5,44.5,0,0,0,14-9.1,43,43,0,0,0,9.4-13.6,42.2,42.2,0,0,0,0-33.2,43.2,43.2,0,0,0-23.4-22.6A44.2,44.2,0,0,0,2556.2,1598.9Z" transform="translate(0 2.7)"/><path class="cls-6" d="M2681.6,1663.8v7.8a20,20,0,0,0,.3,3.2,12.7,12.7,0,0,0,1.3,3.2,7.5,7.5,0,0,0,2.7,2.6,8.3,8.3,0,0,0,4.5,1.1,8.6,8.6,0,0,0,6.3-2.5,8.8,8.8,0,0,1,6.4-3,8.5,8.5,0,0,1,6.6,2.3,8,8,0,0,1,3,6.1,8.8,8.8,0,0,1-2.2,6.5q-7.8,8.4-20.1,8.4c-5,0-9.2-.9-12.6-2.8a28,28,0,0,1-8.5-6.9,27,27,0,0,1-4.6-9.1,31.4,31.4,0,0,1-1.5-9.1v-70.7h-18.4a8.6,8.6,0,0,1-6.4-2.6,8.7,8.7,0,0,1,0-12.6,8.6,8.6,0,0,1,6.4-2.6h18.4v-35.3a8.3,8.3,0,0,1,2.7-6.2,8.9,8.9,0,0,1,6.4-2.7,9,9,0,0,1,6.6,2.7,8.3,8.3,0,0,1,2.7,6.2v35.3h27.7a8.6,8.6,0,0,1,6.4,2.6,8.7,8.7,0,0,1,0,12.6,8.6,8.6,0,0,1-6.4,2.6h-27.7Z" transform="translate(0 2.7)"/><path class="cls-6" d="M2860.2,1690.5a8.7,8.7,0,0,1-2.7,6.4,9.3,9.3,0,0,1-6.6,2.6,9.2,9.2,0,0,1-6.4-2.6,8.7,8.7,0,0,1-2.7-6.4v-11.9a35.9,35.9,0,0,1-5.6,7.9,36.4,36.4,0,0,1-8.8,6.9,50.1,50.1,0,0,1-12.2,4.9,64.2,64.2,0,0,1-15.9,1.9,60.7,60.7,0,0,1-56-36.2,57.5,57.5,0,0,1,0-46,61.5,61.5,0,0,1,13-18.8,62.3,62.3,0,0,1,19.3-12.7,60.7,60.7,0,0,1,23.7-4.6,52.9,52.9,0,0,1,16,2.2,56.3,56.3,0,0,1,12.6,5.6,40.7,40.7,0,0,1,8.8,7.3,34.1,34.1,0,0,1,5.1,7.4v-12.3a8.3,8.3,0,0,1,2.7-6.3,8.8,8.8,0,0,1,6.4-2.6,8.9,8.9,0,0,1,6.6,2.6,8.3,8.3,0,0,1,2.7,6.3Zm-60.9-8.2a43.7,43.7,0,0,0,16.5-3.2,42.9,42.9,0,0,0,13.5-8.9,40.3,40.3,0,0,0,9.2-13.1,39.2,39.2,0,0,0,3.3-16,39.6,39.6,0,0,0-3.3-16.1,41.9,41.9,0,0,0-9.2-13.2,42.6,42.6,0,0,0-13.5-8.8,42.5,42.5,0,0,0-55.6,22,39.6,39.6,0,0,0-3.3,16.1,39.2,39.2,0,0,0,3.3,16,40.1,40.1,0,0,0,9.1,13.1,42.4,42.4,0,0,0,13.4,8.9A43.8,43.8,0,0,0,2799.3,1682.3Z" transform="translate(0 2.7)"/><path class="cls-6" d="M3065.9,1627.5v3c.1,1.9.1,4.3.1,7.2s.1,6.3.1,10.1v42.7a8.7,8.7,0,0,1-2.7,6.4,9,9,0,0,1-6.6,2.6,9.2,9.2,0,0,1-6.5-2.6,9,9,0,0,1-2.6-6.4v-60.7a36.8,36.8,0,0,0-2-12,30.4,30.4,0,0,0-5.9-10,28.6,28.6,0,0,0-9.2-6.8,30,30,0,0,0-12.3-2.5,27.7,27.7,0,0,0-10.3,1.9,30.5,30.5,0,0,0-15.3,13.1,28.3,28.3,0,0,0-3.8,9.9v67.1a8.7,8.7,0,0,1-2.7,6.4,9.1,9.1,0,0,1-6.5,2.6,9.2,9.2,0,0,1-6.5-2.6,8.7,8.7,0,0,1-2.7-6.4v-67.1a30.2,30.2,0,0,0-3.5-9.8,28.2,28.2,0,0,0-6.2-7.9,27.1,27.1,0,0,0-8.7-5.3,31.4,31.4,0,0,0-10.8-1.9,28.2,28.2,0,0,0-11.5,2.4,30,30,0,0,0-9.5,6.6,33.5,33.5,0,0,0-6.5,9.8,31.7,31.7,0,0,0-2.5,11.9v61.3a9,9,0,0,1-2.6,6.4,9.2,9.2,0,0,1-6.5,2.6,9,9,0,0,1-6.6-2.6,8.7,8.7,0,0,1-2.7-6.4v-98.2a8.7,8.7,0,0,1,2.7-6.4,9,9,0,0,1,6.6-2.6,9.2,9.2,0,0,1,6.5,2.6,9,9,0,0,1,2.6,6.4v6.1a68.6,68.6,0,0,1,5.6-6.7,40.5,40.5,0,0,1,6.8-5.6,34,34,0,0,1,8.1-4,32.6,32.6,0,0,1,9.5-1.4,54.6,54.6,0,0,1,13.5,1.5,35.9,35.9,0,0,1,18.3,11,84.7,84.7,0,0,1,6.6,8.6,47.3,47.3,0,0,1,7.4-8.7,46.5,46.5,0,0,1,9.1-6.7,47.1,47.1,0,0,1,10.6-4.3,48.3,48.3,0,0,1,11.5-1.4,48.9,48.9,0,0,1,19.8,3.7,42.8,42.8,0,0,1,14.7,10.1,45.3,45.3,0,0,1,9.3,14.8A57.9,57.9,0,0,1,3065.9,1627.5Z" transform="translate(0 2.7)"/><path class="cls-1" d="M2519.8,1566.9s19.3-13.6,40.5-9.7" transform="translate(0 2.7)"/><path class="cls-1" d="M2522.1,1570.9c10.5-7.2,24.4-11.2,37-9.2,5.9.9,8.4-8,2.5-9a62.4,62.4,0,0,0-44.2,10.1c-4.9,3.4-.2,11.5,4.7,8.1Z" transform="translate(0 2.7)"/><path class="cls-1" d="M2536.1,1723.5s-23.4-2.3-37.1-19" transform="translate(0 2.7)"/><path class="cls-1" d="M2536.1,1718.8h.1l-2.7-.4a58.5,58.5,0,0,1-9.1-2.5,49.3,49.3,0,0,1-22.1-14.7c-3.9-4.6-10.4,2-6.6,6.6,9.9,11.6,25.3,18.8,40.4,20.3,6,.7,6-8.7,0-9.3Z" transform="translate(0 2.7)"/></g></svg>