<?xml version="1.0" encoding="utf-8"?>
<!-- Generator: Adobe Illustrator 25.0.0, SVG Export Plug-In . SVG Version: 6.00 Build 0)  -->
<svg version="1.1" id="Capa_1" xmlns="http://www.w3.org/2000/svg" xmlns:xlink="http://www.w3.org/1999/xlink" x="0px" y="0px"
	 viewBox="0 0 1080 1080" style="enable-background:new 0 0 1080 1080;" xml:space="preserve">
<style type="text/css">
	.st0{fill:#FFFFFF;stroke:#FFFFFF;stroke-miterlimit:10;}
</style>
<g>
	<path class="st0" d="M266.2,506.7c1.3-0.2,2.7-0.2,4,0.2c1.2,0.4,2.4,1,3.4,1.8s1.8,1.9,2.4,3.1c0.6,1.2,0.9,2.5,0.9,3.9
		c0.1,2.1-0.7,4.2-2.2,5.8c-1.4,1.7-3.4,2.8-5.6,3.1c-9.5,1.8-18.1,6.7-24.5,13.9c-3.1,3.5-5.5,7.6-7.2,12
		c-1.7,4.5-2.6,9.3-2.6,14.2v51.7c0,2.4-1,4.7-2.7,6.4c-1.8,1.7-4.1,2.6-6.6,2.6c-2.5,0.1-4.8-0.9-6.6-2.6c-1.7-1.7-2.7-4-2.7-6.4
		v-98.3c0-2.4,1-4.7,2.7-6.4c1.8-1.7,4.1-2.7,6.6-2.6c2.5,0,4.8,0.9,6.6,2.6c1.7,1.7,2.7,4,2.7,6.4v8.2c4.2-5,9.1-9.5,14.5-13.1
		C254.4,509.9,260.2,507.7,266.2,506.7z"/>
	<path class="st0" d="M355.7,628.1c-8.4,0.1-16.7-1.5-24.5-4.7c-14.9-6.1-26.8-17.7-33.4-32.4c-3.2-7.5-4.9-15.6-4.9-23.8
		s1.6-16.2,4.9-23.7c14.3-31.9,51.8-46.2,83.8-31.9c14.2,6.4,25.5,17.7,31.9,31.9c3.3,7.5,4.9,15.5,4.9,23.7s-1.7,16.3-4.9,23.8
		c-6.6,14.7-18.5,26.3-33.4,32.4C372.4,626.6,364.1,628.2,355.7,628.1z M355.7,524.5c-5.9-0.1-11.7,1.1-17.1,3.4
		c-5.2,2.1-10,5.2-14,9.1c-4,3.9-7.2,8.5-9.4,13.6c-4.5,10.6-4.5,22.7,0,33.3c2.2,5.1,5.4,9.7,9.4,13.6c4.1,3.9,8.8,7,14,9.1
		c10.9,4.5,23.3,4.5,34.2,0c5.2-2.1,9.9-5.2,14-9.1c4-3.9,7.2-8.5,9.4-13.6c4.7-10.6,4.7-22.7,0-33.3c-2.2-5.1-5.4-9.7-9.4-13.6
		c-4-3.9-8.8-7-14-9.1C367.4,525.6,361.6,524.4,355.7,524.5z"/>
	<path class="st0" d="M481.2,589.7v7.8c0,1,0.1,2.1,0.4,3.1c0.2,1.2,0.6,2.3,1.3,3.3c0.6,1.1,1.5,2,2.6,2.6c1.4,0.7,2.9,1.1,4.5,1
		c2.4,0.1,4.7-0.8,6.4-2.4c3.4-3.7,9.1-4,12.9-0.7c1.8,1.5,3,3.7,3.1,6.1c0.1,2.4-0.7,4.7-2.3,6.5c-5.2,5.6-11.9,8.4-20.1,8.4
		c-4.4,0.1-8.7-0.8-12.6-2.8c-3.2-1.7-6.1-4-8.4-6.9c-2.1-2.7-3.7-5.8-4.7-9.1c-0.9-2.9-1.4-6-1.5-9.1v-70.7h-18.3
		c-2.4,0.1-4.8-0.9-6.5-2.6c-3.5-3.3-3.6-8.8-0.3-12.3c0.1-0.1,0.2-0.2,0.3-0.3c1.7-1.7,4.1-2.7,6.5-2.6h18.3v-35.3
		c0-2.4,1-4.6,2.8-6.2c1.7-1.7,4-2.7,6.4-2.7s4.8,0.9,6.5,2.7c1.7,1.6,2.7,3.8,2.7,6.2V509H509c4.9,0,8.9,4,8.9,8.9s-4,8.9-8.9,8.9
		l0,0h-27.8L481.2,589.7L481.2,589.7z"/>
	<path class="st0" d="M659.8,616.4c0,2.4-1,4.7-2.7,6.4s-4.1,2.6-6.5,2.6s-4.7-0.9-6.4-2.6c-1.8-1.6-2.8-4-2.8-6.4v-11.9
		c-1.5,2.9-3.3,5.5-5.5,7.9c-2.6,2.7-5.5,5.1-8.8,6.9c-3.9,2.2-8,3.8-12.3,4.9c-5.2,1.3-10.5,1.9-15.9,1.9
		c-24.2,0.2-46.2-14-56-36.2c-6.4-14.7-6.4-31.3,0-46c3.1-7,7.5-13.4,13-18.8c5.6-5.4,12.2-9.7,19.4-12.7c7.5-3.1,15.5-4.7,23.6-4.6
		c5.4-0.1,10.9,0.7,16.1,2.2c4.4,1.3,8.6,3.2,12.5,5.6c3.3,2,6.3,4.5,8.9,7.3c2,2.2,3.7,4.7,5,7.4V518c-0.1-2.4,1-4.7,2.8-6.3
		c1.7-1.7,4-2.7,6.4-2.6c2.4-0.1,4.8,0.9,6.5,2.6c1.8,1.6,2.7,3.9,2.7,6.3V616.4z M598.9,608.2c11.2,0.1,22-4.3,30.1-12.1
		c3.9-3.7,7-8.2,9.1-13.1c2.2-5,3.3-10.5,3.3-16s-1.1-11-3.3-16.1c-2.1-4.9-5.2-9.4-9.1-13.2c-3.9-3.8-8.6-6.8-13.6-8.8
		c-15.9-6.5-34.1-3.1-46.5,8.8c-3.8,3.8-6.9,8.3-9.1,13.2c-2.2,5.1-3.3,10.6-3.3,16.1s1.1,11,3.3,16c4.4,10,12.5,17.8,22.6,22
		C587.6,607.1,593.2,608.2,598.9,608.2L598.9,608.2z"/>
	<path class="st0" d="M865.5,553.4c0,0.1,0,1.2,0.1,3s0,4.3,0.1,7.2v52.8c0,2.4-0.9,4.7-2.6,6.4c-1.8,1.7-4.1,2.6-6.6,2.6
		c-2.4,0-4.8-0.9-6.5-2.6c-1.7-1.7-2.7-4-2.7-6.4v-60.7c0.1-4.1-0.6-8.2-2-12c-1.3-3.7-3.2-7.1-5.8-10s-5.7-5.2-9.2-6.8
		c-3.9-1.7-8.1-2.5-12.3-2.5c-3.5,0-7,0.6-10.3,1.9c-3.2,1.2-6.2,3-8.8,5.2s-4.9,4.9-6.6,7.9c-1.8,3-3.1,6.4-3.7,9.9v67.1
		c0,2.4-1,4.7-2.7,6.4s-4.1,2.6-6.5,2.6s-4.8-0.9-6.5-2.6c-1.7-1.7-2.7-4-2.7-6.4v-67.1c-0.7-3.4-1.9-6.7-3.5-9.8
		c-1.6-3-3.7-5.6-6.2-7.9c-2.6-2.3-5.5-4.1-8.7-5.3c-3.5-1.3-7.1-1.9-10.8-1.9c-4,0-7.9,0.8-11.5,2.4c-3.6,1.6-6.8,3.8-9.5,6.6
		s-4.9,6.1-6.5,9.7c-1.6,3.8-2.5,7.9-2.5,12v61.3c0,2.4-1,4.7-2.7,6.4s-4.1,2.6-6.5,2.6c-2.5,0-4.8-0.9-6.6-2.6
		c-1.7-1.7-2.6-4-2.6-6.4v-98.2c0-2.4,0.9-4.7,2.6-6.4c1.8-1.7,4.1-2.6,6.6-2.6c2.4,0,4.8,0.9,6.5,2.6c1.7,1.7,2.7,4,2.7,6.4v6.1
		c1.7-2.3,3.5-4.6,5.5-6.7c2.1-2.1,4.4-4,6.9-5.6c2.5-1.7,5.2-3.1,8.1-4c3-0.9,6.2-1.4,9.4-1.4c4.5-0.1,9.1,0.4,13.5,1.5
		c3.6,0.9,7.1,2.4,10.3,4.3c3,1.8,5.7,4.1,8,6.7c2.4,2.7,4.7,5.6,6.7,8.6c4.2-6.4,9.8-11.7,16.5-15.4c3.3-1.8,6.8-3.3,10.5-4.3
		c10.5-2.5,21.4-1.7,31.4,2.3c5.5,2.3,10.5,5.8,14.6,10.1s7.2,9.3,9.3,14.8C863.9,541,865.2,547.2,865.5,553.4z"/>
	<path class="st0" d="M319,492.8c0,0,19.3-13.6,40.5-9.7"/>
	<path class="st0" d="M321.3,496.8c10.5-7.2,24.4-11.2,37-9.2c5.9,1,8.4-8,2.5-9c-15.5-2.3-31.3,1.3-44.2,10.1
		C311.7,492.1,316.4,500.2,321.3,496.8z"/>
	<path class="st0" d="M335.3,649.4c0,0-23.4-2.3-37.1-19"/>
	<path class="st0" d="M335.3,644.7c-0.5,0-0.6-0.1,0.1,0l-2.7-0.4c-3.1-0.6-6.1-1.5-9.1-2.5c-8.6-2.8-16.2-7.9-22.1-14.7
		c-3.9-4.6-10.5,2-6.6,6.6c9.9,11.7,25.3,18.8,40.4,20.4C341.3,654.7,341.3,645.3,335.3,644.7L335.3,644.7z"/>
</g>
</svg>
