<?xml version="1.0" encoding="utf-8"?>
<!-- Generator: Adobe Illustrator 25.0.0, SVG Export Plug-In . SVG Version: 6.00 Build 0)  -->
<svg version="1.1" id="Capa_1" xmlns="http://www.w3.org/2000/svg" xmlns:xlink="http://www.w3.org/1999/xlink" x="0px" y="0px"
	 viewBox="0 0 512 512" style="enable-background:new 0 0 512 512;" xml:space="preserve">
<style type="text/css">
	.st0{fill:#0FA53A;}
</style>
<g>
	<path class="st0" d="M178.8,477c31.6,46.7,98.8,46.6,130.3,0H178.8z"/>
	<path class="st0" d="M395.5,306.3c-4.5-4.5-7.6-10-9.3-16.1c-88.5,19.3-171.7-48.5-171.7-138.2c0-61.2,39-113.4,93.4-133.1
		C263.3-9.7,204.1-6.2,162.7,32.1c-22.2,20.5-36,48.3-38.9,78.2c-21.9,181.9-20.9,173.7-20.9,174c-0.8,8.3-4.5,16-10.3,21.9
		l-28.2,28.2c-12.4,12.4-19.3,29-19.3,46.6c0,36.3,29.6,65.9,65.9,65.9h266.2c36.3,0,65.9-29.6,65.9-65.9c0-17.6-6.9-34.2-19.3-46.6
		L395.5,306.3z"/>
	<path class="st0" d="M467,152c0-69.3-63.5-122.4-132-109.5c0,0,0.1,0.1,0,0c-51.5,9.8-90.5,55.2-90.5,109.5
		c0,71.8,67.4,125.4,137.8,108.4c0-0.1,0,0,0,0C430.9,248.5,467,204.2,467,152L467,152z M379,192c0,8.3-6.7,15-15,15s-15-6.7-15-15
		v-65h-14.1c-8.3,0-15-6.7-15-15s6.7-15,15-15H364c8.3,0,15,6.7,15,15V192z"/>
</g>
</svg>
