<svg xmlns="http://www.w3.org/2000/svg" viewBox="0 0 32 38"><defs><style>.cls-1{fill:#dff0fe;}.cls-2{fill:#4788c7;}.cls-3{fill:#98ccfd;}</style></defs><g id="Layer_2" data-name="Layer 2"><g id="Layer_1-2" data-name="Layer 1"><path class="cls-1" d="M16,37.5C14.3,36.7.6,30,.5,5.4L16,.5,31.5,5.4C31.4,29.9,17.7,36.7,16,37.5Z"/><path class="cls-2" d="M16,1,31,5.7c-.3,23.2-12.7,30.1-15,31.2C13.7,35.9,1.3,29,1,5.7L16,1m0-1L0,5C0,32.1,16,38,16,38S32,32.1,32,5L16,0Z"/><path class="cls-3" d="M13.6,25.5l1.1-7.3h-.3A3.4,3.4,0,0,1,12.5,15a3.5,3.5,0,0,1,7,0,3.4,3.4,0,0,1-1.9,3.1h-.3l1.1,7.3Z"/><path class="cls-2" d="M16,12a2.9,2.9,0,0,1,3,3,2.9,2.9,0,0,1-1.6,2.6l-.6.4v.7l.9,6.3H14.2l.9-6.3V18l-.6-.4A2.9,2.9,0,0,1,13,15a2.9,2.9,0,0,1,3-3m0-1a4,4,0,0,0-4,4,4.1,4.1,0,0,0,2.1,3.5L13,26h6l-1.1-7.5A4.1,4.1,0,0,0,20,15a4,4,0,0,0-4-4Z"/></g></g></svg>