<?xml version="1.0" encoding="utf-8"?>
<!-- Generator: Adobe Illustrator 25.0.0, SVG Export Plug-In . SVG Version: 6.00 Build 0)  -->
<svg version="1.1" id="Layer_1" xmlns="http://www.w3.org/2000/svg" xmlns:xlink="http://www.w3.org/1999/xlink" x="0px" y="0px"
	 viewBox="0 0 48 48" style="enable-background:new 0 0 48 48;" xml:space="preserve">
<style type="text/css">
	.st0{fill:#FDD835;}
	.st1{fill:#37474F;}
	.st2{fill:#FF2900;}
	.st3{fill:#FFFFFF;}
	.st4{font-family:'ArialMT';}
	.st5{font-size:5.9067px;}
	.st6{fill:none;stroke:#FFFFFF;stroke-width:0.5;stroke-miterlimit:10;}
</style>
<path class="st0" d="M21.8,41.1L6.9,26.2c-1.2-1.2-1.2-3.3,0-4.5L21.8,6.9c1.2-1.2,3.3-1.2,4.5,0l14.8,14.9c1.2,1.2,1.2,3.3,0,4.5
	L26.2,41.1C25,42.3,23,42.3,21.8,41.1z"/>
<path class="st1" d="M24,43c-1.1,0-2.2-0.4-3-1.2L6.2,27c-1.6-1.6-1.6-4.3,0-5.9L21,6.2C21.8,5.4,22.9,5,24,5s2.2,0.4,3,1.2L41.8,21
	c1.6,1.6,1.6,4.3,0,5.9L27,41.8C26.2,42.6,25.1,43,24,43z M24,7c-0.6,0-1.2,0.2-1.5,0.6L7.6,22.5c-0.8,0.8-0.8,2.3,0,3.1l14.9,14.9
	c0.8,0.8,2.3,0.8,3.1,0l14.8-14.9c0.8-0.8,0.8-2.3,0-3.1L25.5,7.6C25.2,7.2,24.6,7,24,7z"/>
<path class="st1" d="M27.9,31.4c-0.8,0-1.2-0.9-1.8-0.9s-3,1.7-3.6,4.2L12,24.1c0,0,5.9-1.5,8.2-4.5c0.8-0.9,1.6-1.5,3-1.5
	s4.6,1.4,5.4,2.4c0.8,1.2,1.5,5.1,3.6,7c0.5,0.3-0.2,1.7-0.8,2.4s-1.2,0.6-2.1,0.8C29.1,31.1,28.2,31.4,27.9,31.4z"/>
<path class="st1" d="M22.5,20.7c-1.2,0.4-3.5-0.8-4-1.5c0.3-0.1,0.6-0.1,0.8-0.3c-0.3,0-0.8,0.1-1-0.1c-0.1-0.6-0.5-1.4,0.1-2.4
	c1.4-0.1,2.4,0.3,3.5,1.2c0.6,0.6,2,2.1,1,3C22.6,20.7,22.6,20.7,22.5,20.7z"/>
<path class="st1" d="M21.3,20.1c0-1,1.2-2.1,1.8-2.7c0.8-0.6,1.6-1.1,2.2-1.1c1.6,0,2.1,0.8,3.5,1.4c1,0.6,2.1,0.6,2.1,0.8
	c0,0.1-1.4,0.6-3,0.1c-1.6-0.4-2.6-1.6-3.8,2.1c-0.3,1-2.2,0.7-2.7-0.1C21.5,20.4,21.3,20.2,21.3,20.1z"/>
<circle class="st2" cx="14" cy="13.7" r="3.4"/>
<text transform="matrix(1 0 0 1 12.4112 15.5846)" class="st3 st4 st5">1</text>
<text transform="matrix(1 0 0 1 12.4112 15.5846)" class="st6 st4 st5">1</text>
</svg>
