<svg xmlns="http://www.w3.org/2000/svg" viewBox="0 0 48 48"><path fill="#689f38" d="M36 24L36 4 12 4 12 24 4 24 24 44 44 24z"/><path fill="#fff" d="M25.46,23.744c0-0.48-0.134-0.862-0.399-1.147c-0.267-0.283-0.72-0.546-1.358-0.786 s-1.189-0.479-1.652-0.716c-0.463-0.238-0.86-0.51-1.191-0.818c-0.331-0.307-0.589-0.669-0.773-1.085s-0.277-0.911-0.277-1.485 c0-0.99,0.316-1.802,0.949-2.435s1.474-1.002,2.522-1.107v-1.881h1.406v1.907c1.037,0.146,1.849,0.579,2.435,1.297 S28,17.135,28,18.277h-2.54c0-0.703-0.146-1.229-0.435-1.577c-0.291-0.349-0.679-0.523-1.165-0.523 c-0.48,0-0.853,0.137-1.116,0.408c-0.264,0.273-0.396,0.649-0.396,1.13c0,0.445,0.129,0.803,0.387,1.072s0.737,0.545,1.437,0.826 s1.276,0.547,1.727,0.796s0.832,0.53,1.143,0.844s0.548,0.671,0.712,1.072C27.918,22.726,28,23.193,28,23.727 c0,0.996-0.311,1.805-0.932,2.426s-1.477,0.987-2.566,1.099V29h-1.397v-1.74c-1.201-0.129-2.131-0.555-2.791-1.278 s-0.989-1.687-0.989-2.888h2.54c0,0.697,0.166,1.232,0.497,1.604s0.807,0.558,1.428,0.558c0.516,0,0.923-0.136,1.222-0.409 C25.311,24.575,25.46,24.207,25.46,23.744z"/></svg>