<svg xmlns="http://www.w3.org/2000/svg" viewBox="0 0 48 48"><path fill="#3949ab" d="M24 34A3 3 0 1 0 24 40A3 3 0 1 0 24 34Z"/><path fill="#3949ab" d="M2 10H46V38H2z"/><path fill="#efebe9" d="M4 8c0 0 8.999 0 13 0 4 0 6 0 6 2 0 3 0 28 0 28 0-2-4-2-6-2-4 0-13 0-13 0C4 32 4 8 4 8zM44 36c0 0-8 0-12 0-2 0-7 0-7 2 0-26.038 0-24.683 0-28 0-2 3-2 7-2 4.001 0 12 0 12 0S44 32 44 36z"/><path fill="#bcaaa4" d="M23 10H25V38H23zM17 26H20V28H17zM9 20H11V22H9zM9 12H11V14H9zM9 16H11V18H9zM13 12H20V14H13zM13 16H18V18H13zM13 20H18V22H13zM9 30H11V32H9zM15 30H20V32H15z"/><path fill="#2e7d32" d="M34.491,21.105c0,0-1.701-0.509-1.701-1.675c0-1.361,1.151-1.349,1.394-1.349 c0.449,0,1.475,0.243,1.475,1.918H38c0-3.25-2.542-3.542-3.333-3.66v-1.674h-1.333v1.693c-0.867,0.15-2.887,0.743-2.887,3.064 c0,2.479,2.463,3.159,2.667,3.244c1.428,0.596,2.545,0.776,2.545,2.055c0,1.291-1.286,1.325-1.54,1.325 c-0.222,0-1.775,0.057-1.775-2.047H30c0,3.287,2.581,3.707,3.333,3.791v1.543h1.333v-1.535C35.153,27.752,38,27.402,38,24.704 C38,22.11,35.015,21.305,34.491,21.105z"/></svg>