<svg id="Layer_1" data-name="Layer 1" xmlns="http://www.w3.org/2000/svg" viewBox="0 0 254 62.623"><defs><style>.cls-1{fill:#fff;}</style></defs><title>logo</title><path class="cls-1" d="M32.057,26.332L31.23,22.08A9.686,9.686,0,0,0,33,21.967a26.228,26.228,0,0,0,2.672-1.077,6.8,6.8,0,0,1,3.469-.083,5.608,5.608,0,0,1,1.416.629A4.152,4.152,0,0,0,38.511,22.6c-1.062,1.453-3.187,1.523-4.772,1.093C32.373,23.322,32.05,26.3,32.057,26.332Z" transform="translate(0 0)"/><path class="cls-1" d="M24.729,26.332l0.827-4.252a9.68,9.68,0,0,1-1.769-.114,26.221,26.221,0,0,1-2.672-1.077,6.8,6.8,0,0,0-3.469-.083,5.606,5.606,0,0,0-1.416.629A4.154,4.154,0,0,1,18.275,22.6c1.062,1.453,3.187,1.523,4.771,1.093C24.413,23.322,24.736,26.3,24.729,26.332Z" transform="translate(0 0)"/><path class="cls-1" d="M17.415,2.89l0.168,0.147a8.4,8.4,0,0,0,1.571,1.026c0.587,0.306,1.226.586,1.888,0.9,0.686,0.326,1.309.668,1.947,1.029s1.239,0.76,1.819,1.172A15.975,15.975,0,0,1,26.422,8.5a9.668,9.668,0,0,1,1.285,1.495,7,7,0,0,1,.686,1.212,6.97,6.97,0,0,1,.686-1.212A9.7,9.7,0,0,1,30.364,8.5a15.975,15.975,0,0,1,1.614-1.329C32.557,6.756,33.166,6.358,33.8,6s1.261-.7,1.947-1.029c0.662-.316,1.3-0.6,1.888-0.9A8.4,8.4,0,0,0,39.2,3.037L39.37,2.89c0.037-.029.114-0.106,0.168-0.156l0.089-.085C38.4,2.1,37.19,1.643,36.055,1.259a23.937,23.937,0,0,0-15.324,0c-1.135.384-2.34,0.844-3.572,1.39l0.089,0.085C17.3,2.784,17.378,2.861,17.415,2.89Z" transform="translate(0 0)"/><path class="cls-1" d="M1.838,23.989a14.531,14.531,0,0,0,1.685-1.268A18.286,18.286,0,0,0,5.2,21.036c1.112-1.247,2.228-2.7,3.556-4.1l0.512-.517,0.554-.513,0.52-.444,0.6-.465a15.756,15.756,0,0,1,2.474-1.486,13.994,13.994,0,0,1,2.564-.942,12.237,12.237,0,0,1,2.447-.39,10.89,10.89,0,0,1,1.111-.02,9.959,9.959,0,0,1,1,.063c0.316,0.021.607,0.079,0.878,0.122,0.161,0.022.318,0.055,0.471,0.09a6.284,6.284,0,0,1,1.539.152,13.9,13.9,0,0,1,2.648,1c0-.038.005-0.075,0.008-0.118l0.007-.094a0.5,0.5,0,0,0-.007-0.057L26.08,13.2a3.019,3.019,0,0,0-.132-0.739,4.491,4.491,0,0,0-.462-1.036,8.084,8.084,0,0,0-.863-1.193A13.475,13.475,0,0,0,23.369,9C22.9,8.593,22.379,8.19,21.83,7.8S20.7,7,20.126,6.658C19.537,6.3,18.9,5.938,18.284,5.53a9.961,9.961,0,0,1-1.732-1.412l-0.187-.2c-0.08-.087-0.112-0.134-0.17-0.2-0.1-.122-0.209-0.259-0.317-0.4-0.013-.017-0.023-0.033-0.036-0.049-5.459,2.669-11.158,7.1-13.589,14.364-0.218.652-.461,1.3-0.723,1.932A20.89,20.89,0,0,0,.187,24.874l0.1-.042A12.359,12.359,0,0,0,1.838,23.989Z" transform="translate(0 0)"/><path class="cls-1" d="M36.66,6.658C36.09,7,35.5,7.409,34.956,7.8s-1.066.8-1.54,1.2a13.559,13.559,0,0,0-1.253,1.232,8.083,8.083,0,0,0-.863,1.193,4.5,4.5,0,0,0-.462,1.036,3.015,3.015,0,0,0-.132.739l-0.013.118c0,0.02-.006.033-0.007,0.057l0.007,0.094L30.7,13.585a13.9,13.9,0,0,1,2.648-1,6.285,6.285,0,0,1,1.539-.152c0.152-.035.309-0.068,0.47-0.09,0.271-.043.562-0.1,0.878-0.122a9.97,9.97,0,0,1,1-.063,10.89,10.89,0,0,1,1.111.02,12.229,12.229,0,0,1,2.447.39,14,14,0,0,1,2.564.942A15.744,15.744,0,0,1,45.837,15l0.6,0.465,0.52,0.444,0.554,0.513,0.512,0.517c1.328,1.395,2.444,2.853,3.555,4.1a18.286,18.286,0,0,0,1.681,1.685,14.562,14.562,0,0,0,1.685,1.268,12.333,12.333,0,0,0,1.553.843l0.1,0.042a20.876,20.876,0,0,0-1.344-5.316c-0.262-.635-0.5-1.28-0.722-1.932C52.1,10.361,46.4,5.931,40.944,3.263l-0.036.049c-0.107.142-.215,0.279-0.316,0.4-0.058.069-.09,0.116-0.171,0.2l-0.187.2A9.959,9.959,0,0,1,38.5,5.53C37.883,5.938,37.249,6.3,36.66,6.658Z" transform="translate(0 0)"/><path class="cls-1" d="M48.3,49.182c7.683-9.513,8.87-17.835,8.4-23.369-0.154-.018-0.311-0.041-0.475-0.072a7.865,7.865,0,0,1-1.9-.626,12.882,12.882,0,0,1-2-1.2,19.858,19.858,0,0,1-1.993-1.64c-1.31-1.2-2.537-2.573-3.853-3.725l-0.494-.421L45.5,17.741l-0.549-.408-0.5-.33a13.26,13.26,0,0,0-2.145-1.1,10.608,10.608,0,0,0-1.409-.459,14.6,14.6,0,0,1,2.9,5.567,10.3,10.3,0,0,1,.432,5.372,6.919,6.919,0,0,1-.534,1.663c-0.315.683-.705,1.324-1.082,1.968l-0.071.122-0.007.012-0.015.03-0.132.271-0.135.277-0.032.068-0.008.042-0.018.082a2.141,2.141,0,0,0-.09.346,1.607,1.607,0,0,0-.046.406,3.285,3.285,0,0,0,.578,1.812,13.246,13.246,0,0,0,1.684,2.044l1.055,1.08,0.311,0.321,0.254,0.288c0.087,0.1.165,0.181,0.259,0.3l0.286,0.374a11.042,11.042,0,0,1,1.566,3.142,13.506,13.506,0,0,1,.583,3.247,17.565,17.565,0,0,1-.062,3C48.5,47.956,48.407,48.585,48.3,49.182Z" transform="translate(0 0)"/><path class="cls-1" d="M8.737,41.031A11.049,11.049,0,0,1,10.3,37.89l0.286-.374c0.094-.119.172-0.2,0.259-0.3l0.254-.288,0.311-.321,1.055-1.08a13.262,13.262,0,0,0,1.684-2.044,3.289,3.289,0,0,0,.578-1.812,1.607,1.607,0,0,0-.047-0.406,2.114,2.114,0,0,0-.09-0.346l-0.018-.082-0.008-.042-0.032-.068L14.4,30.449l-0.132-.271-0.014-.03-0.007-.012-0.071-.122c-0.376-.644-0.766-1.285-1.082-1.968a6.925,6.925,0,0,1-.534-1.663,10.3,10.3,0,0,1,.433-5.372,14.6,14.6,0,0,1,2.9-5.567,10.585,10.585,0,0,0-1.409.458A13.255,13.255,0,0,0,12.333,17l-0.5.33-0.549.408-0.482.388-0.494.421C8.993,19.7,7.766,21.079,6.457,22.275a19.926,19.926,0,0,1-1.993,1.64,12.906,12.906,0,0,1-2,1.2,7.866,7.866,0,0,1-1.9.626c-0.164.031-.322,0.054-0.475,0.072-0.47,5.534.717,13.857,8.4,23.369-0.111-.6-0.208-1.226-0.274-1.905a17.6,17.6,0,0,1-.062-3A13.509,13.509,0,0,1,8.737,41.031Z" transform="translate(0 0)"/><path class="cls-1" d="M46.785,44.528a13.054,13.054,0,0,0-.771-2.668,8.525,8.525,0,0,0-1.383-2.286l-0.193-.232c-0.069-.08-0.174-0.179-0.259-0.267L43.91,38.8,43.9,38.794l0.029,0.03-0.017-.016-0.034-.031-0.068-.063-0.137-.125-1.127-1.029a13.839,13.839,0,0,1-2.152-2.47,6.205,6.205,0,0,1-.751-1.518,14.74,14.74,0,0,0-.041,3.059,5.612,5.612,0,0,1-1.62,4.494,3,3,0,0,1-2.832.981A15.69,15.69,0,0,1,29.489,39.4a0.162,0.162,0,0,0,0-.071,1.96,1.96,0,0,1,.6-1.636c4.058-1.876,3.951-4.07,3.951-4.07a16.579,16.579,0,0,0-5.168-1.14,6.214,6.214,0,0,0-.963,0,16.575,16.575,0,0,0-5.168,1.14s-0.107,2.195,3.951,4.07a1.958,1.958,0,0,1,.6,1.636,0.168,0.168,0,0,0,0,.071,15.691,15.691,0,0,1-5.663,2.706,3,3,0,0,1-2.832-.981,5.614,5.614,0,0,1-1.62-4.494,14.74,14.74,0,0,0-.041-3.059,6.194,6.194,0,0,1-.751,1.518,13.837,13.837,0,0,1-2.152,2.47L13.111,38.59l-0.136.125-0.069.063-0.034.031-0.017.016,0.029-.03-0.009.009-0.269.272c-0.085.089-.19,0.187-0.259,0.267l-0.192.232a8.526,8.526,0,0,0-1.383,2.286A13.054,13.054,0,0,0,10,44.528a20.777,20.777,0,0,0-.291,2.7c-0.015.437-.02,0.865-0.017,1.281s0.008,0.833.022,1.214c0.014,0.348.035,0.679,0.061,1q0.3,0.348.618,0.7A41.7,41.7,0,0,0,18.95,58.7a8.284,8.284,0,0,1-.192-1.123,15.33,15.33,0,0,1,.381-5.089,23.24,23.24,0,0,1,.945-2.639,10.077,10.077,0,0,0,1.206,6.483,14.3,14.3,0,0,1,1.624,4.22c0.023,0.112.038,0.22,0.051,0.328a24.1,24.1,0,0,0,5.429,1.747,24.105,24.105,0,0,0,5.428-1.747c0.013-.108.029-0.216,0.051-0.328a14.3,14.3,0,0,1,1.624-4.22A10.075,10.075,0,0,0,36.7,49.845a23.3,23.3,0,0,1,.945,2.639,15.337,15.337,0,0,1,.38,5.089,8.273,8.273,0,0,1-.192,1.123,41.7,41.7,0,0,0,8.555-7.281q0.315-.351.618-0.7c0.026-.318.047-0.649,0.061-1,0.014-.381.024-0.8,0.022-1.214s0-.844-0.017-1.281A20.8,20.8,0,0,0,46.785,44.528ZM32.577,47.014a4.062,4.062,0,0,1-.858-1.77S30.5,48.21,28.393,49.158c-2.1-.947-3.326-3.914-3.326-3.914a4.062,4.062,0,0,1-.858,1.77c-0.858-.912-1.234-3.738-1.234-3.738a31.881,31.881,0,0,1,5.419-2.592,31.881,31.881,0,0,1,5.418,2.592S33.436,46.1,32.577,47.014Z" transform="translate(0 0)"/><path class="cls-1" d="M76.674,58.786V1.945h8.966V50.86h30.5v7.926H76.674Z" transform="translate(0 0)"/><path class="cls-1" d="M139.6,59.587a22.273,22.273,0,0,1-8.886-1.722,20.649,20.649,0,0,1-6.845-4.683,21.1,21.1,0,0,1-4.4-6.885,22.309,22.309,0,0,1-1.561-8.326,22.627,22.627,0,0,1,1.561-8.366,21.462,21.462,0,0,1,4.4-6.965,20.385,20.385,0,0,1,6.845-4.723,22.481,22.481,0,0,1,8.966-1.721,21.566,21.566,0,0,1,8.846,1.761,21.175,21.175,0,0,1,6.765,4.683,20.074,20.074,0,0,1,4.283,6.805,22.623,22.623,0,0,1,1.481,8.126q0,0.961-.08,1.8c-0.054.561-.108,1.029-0.16,1.4H127.271a14.319,14.319,0,0,0,1.321,5.043,13.23,13.23,0,0,0,2.8,3.883,12.3,12.3,0,0,0,8.526,3.4,14,14,0,0,0,3.483-.44,12.263,12.263,0,0,0,3.162-1.281,11.239,11.239,0,0,0,2.562-2.041,9.567,9.567,0,0,0,1.761-2.642l7.525,2.162a17.45,17.45,0,0,1-7.165,7.726A22.205,22.205,0,0,1,139.6,59.587Zm12.729-24.9a14.08,14.08,0,0,0-1.321-4.884,12.576,12.576,0,0,0-2.762-3.8,12.331,12.331,0,0,0-3.923-2.442,12.818,12.818,0,0,0-4.724-.881A12.53,12.53,0,0,0,131.033,26a12.031,12.031,0,0,0-2.722,3.8,14.649,14.649,0,0,0-1.281,4.884h25.3Z" transform="translate(0 0)"/><path class="cls-1" d="M187.072,59.587a21.758,21.758,0,0,1-8.926-1.762,20.493,20.493,0,0,1-11.088-11.648,23.331,23.331,0,0,1,0-16.572,20.478,20.478,0,0,1,4.363-6.925,21.31,21.31,0,0,1,6.805-4.723,23.1,23.1,0,0,1,17.692,0,21.328,21.328,0,0,1,6.805,4.723,20.52,20.52,0,0,1,4.363,6.925,23.331,23.331,0,0,1,0,16.572,20.5,20.5,0,0,1-4.363,6.925,21.285,21.285,0,0,1-6.805,4.723A21.56,21.56,0,0,1,187.072,59.587ZM174.583,37.971a15.829,15.829,0,0,0,.961,5.6,13.908,13.908,0,0,0,2.642,4.443,12.35,12.35,0,0,0,3.963,2.962,11.757,11.757,0,0,0,9.847,0,12.1,12.1,0,0,0,3.963-3,14.414,14.414,0,0,0,2.642-4.483,16.7,16.7,0,0,0,0-11.168,14.327,14.327,0,0,0-2.642-4.523,12.1,12.1,0,0,0-3.963-3,11.358,11.358,0,0,0-4.924-1.081,10.845,10.845,0,0,0-4.843,1.121,12.607,12.607,0,0,0-3.963,3.042,14.925,14.925,0,0,0-2.682,4.523A15.346,15.346,0,0,0,174.583,37.971Z" transform="translate(0 0)"/><path class="cls-1" d="M254,58.786h-8.806V35.329q0-5.923-1.881-8.606a6.361,6.361,0,0,0-5.564-2.682,10.876,10.876,0,0,0-3.843.72,13.468,13.468,0,0,0-3.6,2.041,15.9,15.9,0,0,0-3,3.123,14.317,14.317,0,0,0-2.041,3.963v24.9h-8.806V16.916h8.006v8.406a17.018,17.018,0,0,1,6.965-6.685A21.046,21.046,0,0,1,241.511,16.2a12.414,12.414,0,0,1,6.165,1.361,10.2,10.2,0,0,1,3.8,3.723,16.329,16.329,0,0,1,1.961,5.444A36.535,36.535,0,0,1,254,33.247V58.786Z" transform="translate(0 0)"/></svg>