<svg xmlns="http://www.w3.org/2000/svg" viewBox="0 0 48 48"><circle cx="24" cy="24" r="18" fill="#fff"/><path fill="#ef9a9a" d="M10.262,12.383l25.355,25.355c0.765-0.647,1.474-1.356,2.121-2.121L12.383,10.262	C11.619,10.909,10.909,11.619,10.262,12.383z"/><path fill="#37474f" d="M37.893,24.106c-1.473-1.473-3.869-1.473-5.342,0l-4.444,4.444C27.393,29.264,27,30.212,27,31.222	s0.393,1.958,1.107,2.672S29.769,35,30.778,35s1.958-0.393,2.671-1.106l4.444-4.444C38.607,28.736,39,27.788,39,26.778	S38.607,24.82,37.893,24.106z M36.479,28.035l-1.769,1.77l-2.515-2.515l1.77-1.77c0.693-0.69,1.82-0.692,2.514,0	C36.815,25.856,37,26.303,37,26.778S36.815,27.699,36.479,28.035z"/><path fill="#37474f" d="M28,22.707C28,20.724,25,13,25,13H15c0,0-2.987,7.328-2.987,9.707C12.013,26.276,15,29,19,29v4l-4,1	v1h0.21h9.592H25v-1l-4-1v-4C25,29,28,26.276,28,22.707z"/><path fill="#ff3d00" d="M24,4C12.954,4,4,12.954,4,24s8.954,20,20,20s20-8.954,20-20S35.046,4,24,4z M24,41	c-9.389,0-17-7.611-17-17S14.611,7,24,7s17,7.611,17,17S33.389,41,24,41z"/></svg>