<?xml version="1.0" encoding="UTF-8" standalone="no"?>
<svg width="80px" height="80px" viewBox="0 0 1000 1000" version="1.1" xmlns="http://www.w3.org/2000/svg" xmlns:xlink="http://www.w3.org/1999/xlink" xmlns:sketch="http://www.bohemiancoding.com/sketch/ns">
    <!-- Generator: Sketch 3.4.4 (17249) - http://www.bohemiancoding.com/sketch -->
    <title>Artboard 8 Copy</title>
    <desc>Created with Sketch.</desc>
    <defs></defs>
    <g id="Boostrap3-grid-system-layouts" stroke="none" stroke-width="1" fill="none" fill-rule="evenodd" sketch:type="MSPage">
        <g id="Artboard-8-Copy" sketch:type="MSArtboardGroup" fill="#000000">
            <path d="M302.02,442.888136 L302.02,509.554136 C302.102,520.624191 299.498526,528.660111 294.2095,533.662136 C288.920474,538.664161 280.556557,541.165136 269.1175,541.165136 C257.678443,541.165136 249.314526,538.664161 244.0255,533.662136 C238.736474,528.660111 236.133,520.624191 236.215,509.554136 L236.215,440.059136 L213.952,440.059136 C211.98399,439.977135 211,440.920126 211,442.888136 L211,510.661136 C211.246001,529.029227 216.616948,542.046597 227.113,549.713636 C237.609052,557.380674 251.589913,561.091137 269.056,560.845136 C286.522087,561.091137 300.523447,557.380674 311.0605,549.713636 C321.597553,542.046597 326.988999,529.029227 327.235,510.661136 L327.235,440.059136 L304.972,440.059136 C303.00399,439.977135 302.02,440.920126 302.02,442.888136 L302.02,442.888136 Z M624.526,459.370136 C625.428005,459.370136 626.124998,459.206137 626.617,458.878136 C627.109002,458.550134 627.518998,458.058139 627.847,457.402136 L634.243,441.412136 C634.571002,440.510131 634.243005,440.059136 633.259,440.059136 L543.715,440.059136 C539.614979,440.059136 536.663009,440.715129 534.859,442.027136 C533.054991,443.339142 532.153,445.430121 532.153,448.300136 L532.153,551.743136 C532.153,554.121147 532.829493,555.88413 534.1825,557.032136 C535.535507,558.180141 537.810984,558.754136 541.009,558.754136 L624.526,558.754136 C625.428005,558.754136 626.124998,558.590137 626.617,558.262136 C627.109002,557.934134 627.518998,557.442139 627.847,556.786136 L634.243,540.919136 C634.571002,539.935131 634.243005,539.443136 633.259,539.443136 L556.999,539.443136 L556.999,518.410136 C556.917,514.802118 558.023989,512.137144 560.32,510.415136 C562.616011,508.693127 566.428973,507.832136 571.759,507.832136 L604.846,507.832136 C605.748005,507.832136 606.444998,507.668137 606.937,507.340136 C607.429002,507.012134 607.838998,506.520139 608.167,505.864136 L614.317,490.612136 C614.645002,489.628131 614.317005,489.136136 613.333,489.136136 L556.999,489.136136 L556.999,459.370136 L624.526,459.370136 Z M466.84,496.147136 C471.678024,493.605123 475.183489,490.079158 477.3565,485.569136 C479.529511,481.059113 480.616,475.934164 480.616,470.194136 C480.205998,457.402072 475.716543,449.079155 467.1475,445.225136 C458.578457,441.371116 448.554057,439.649134 437.074,440.059136 L386.521,440.059136 C382.338979,440.059136 379.346009,440.715129 377.542,442.027136 C375.737991,443.339142 374.877,445.430121 374.959,448.300136 L374.959,551.743136 C374.959,554.121147 375.635493,555.88413 376.9885,557.032136 C378.341507,558.180141 380.616984,558.754136 383.815,558.754136 L446.053,558.754136 C458.02506,558.836136 467.659964,556.314661 474.958,551.189636 C482.256036,546.06461 486.027999,537.639194 486.274,525.913136 C486.274,518.6971 484.695516,512.403662 481.5385,507.032636 C478.381484,501.661609 473.482033,498.033145 466.84,496.147136 L466.84,496.147136 Z M399.436,458.878136 L438.919,458.878136 C445.315032,458.878136 449.722488,460.128623 452.1415,462.629636 C454.560512,465.130648 455.729,468.96411 455.647,474.130136 C455.729,479.296161 454.560512,483.150123 452.1415,485.692136 C449.722488,488.234148 445.315032,489.505136 438.919,489.505136 L399.436,489.505136 L399.436,458.878136 Z M443.47,539.935136 L399.436,539.935136 L399.436,517.918136 C399.354,514.310118 400.481488,511.645144 402.8185,509.923136 C405.155512,508.201127 408.988973,507.340136 414.319,507.340136 L443.47,507.340136 C450.358034,507.340136 455.093487,508.693122 457.6765,511.399136 C460.259513,514.105149 461.469001,518.205108 461.305,523.699136 C461.469001,529.111163 460.259513,533.170122 457.6765,535.876136 C455.093487,538.582149 450.358034,539.935136 443.47,539.935136 L443.47,539.935136 Z M789.592,556.663136 L762.901,511.030136 C769.707034,509.472128 775.364977,506.089662 779.875,500.882636 C784.385023,495.67561 786.721999,487.578191 786.886,476.590136 C786.721999,462.486065 782.499041,452.810162 774.217,447.562136 C765.934959,442.314109 754.332075,439.813134 739.408,440.059136 L688.609,440.059136 C684.508979,440.059136 681.557009,440.715129 679.753,442.027136 C677.948991,443.339142 677.047,445.430121 677.047,448.300136 L677.047,555.925136 C677.047,557.811145 678.03099,558.754136 679.999,558.754136 L701.647,558.754136 L701.647,524.068136 C701.565,520.460118 702.692488,517.795144 705.0295,516.073136 C707.366512,514.351127 711.199973,513.490136 716.53,513.490136 L738.547,513.490136 L762.532,556.786136 C762.860002,557.442139 763.269998,557.934134 763.762,558.262136 C764.254002,558.590137 764.950995,558.754136 765.853,558.754136 L788.485,558.754136 C789.223004,558.672135 789.653499,558.405638 789.7765,557.954636 C789.899501,557.503633 789.838001,557.073138 789.592,556.663136 L789.592,556.663136 Z M743.098,495.040136 L701.647,495.040136 L701.647,459.124136 L743.098,459.124136 C750.642038,459.124136 755.705487,460.620621 758.2885,463.613636 C760.871513,466.606651 762.081001,471.096106 761.917,477.082136 C762.081001,483.150166 760.871513,487.660121 758.2885,490.612136 C755.705487,493.56415 750.642038,495.040136 743.098,495.040136 L743.098,495.040136 Z" id="logo" sketch:type="MSShapeGroup"></path>
        </g>
    </g>
</svg>