<svg id="Capa_1" data-name="Capa 1" xmlns="http://www.w3.org/2000/svg" viewBox="0 0 1080 1080"><defs><style>.cls-1{fill:#05042e;stroke:#201747;stroke-width:24.92px;}.cls-1,.cls-2{stroke-miterlimit:10;}.cls-2,.cls-3{fill:#ff7900;}.cls-2{stroke:#ff7900;stroke-width:19.94px;}</style></defs><path class="cls-1" d="M266.2,506.7a8.9,8.9,0,0,1,4,.2,10.1,10.1,0,0,1,3.4,1.8,9.2,9.2,0,0,1,2.4,3.1,8.6,8.6,0,0,1,.9,3.9,8.2,8.2,0,0,1-2.2,5.8,9.2,9.2,0,0,1-5.6,3.1,43.2,43.2,0,0,0-24.5,13.9,39.6,39.6,0,0,0-7.2,12,40.2,40.2,0,0,0-2.6,14.2v51.7a8.7,8.7,0,0,1-2.7,6.4,9.3,9.3,0,0,1-6.6,2.6,9,9,0,0,1-6.6-2.6,8.7,8.7,0,0,1-2.7-6.4V518.1a8.7,8.7,0,0,1,2.7-6.4,9,9,0,0,1,6.6-2.6,9.3,9.3,0,0,1,6.6,2.6,8.7,8.7,0,0,1,2.7,6.4v8.2a68,68,0,0,1,14.5-13.1A44.1,44.1,0,0,1,266.2,506.7Z"/><path class="cls-2" d="M355.7,628.1a62.9,62.9,0,0,1-24.5-4.7A63,63,0,0,1,297.8,591a60,60,0,0,1-4.9-23.8,59.1,59.1,0,0,1,4.9-23.7,63.4,63.4,0,0,1,115.7,0,59.1,59.1,0,0,1,4.9,23.7,60,60,0,0,1-4.9,23.8,63,63,0,0,1-33.4,32.4A62.8,62.8,0,0,1,355.7,628.1Zm0-103.6a42.5,42.5,0,0,0-17.1,3.4,44,44,0,0,0-14,9.1,43,43,0,0,0-9.4,13.6,42.5,42.5,0,0,0,0,33.3,43,43,0,0,0,9.4,13.6,45.7,45.7,0,0,0,14,9.1,44.7,44.7,0,0,0,34.2,0,45.7,45.7,0,0,0,14-9.1,43,43,0,0,0,9.4-13.6,41.4,41.4,0,0,0,0-33.3,43,43,0,0,0-9.4-13.6,44,44,0,0,0-14-9.1A42.5,42.5,0,0,0,355.7,524.5Z"/><path class="cls-1" d="M481.2,589.7v7.8a12,12,0,0,0,.4,3.1,7.9,7.9,0,0,0,1.3,3.3,7.2,7.2,0,0,0,2.6,2.6,8.8,8.8,0,0,0,4.5,1,8.6,8.6,0,0,0,6.4-2.4,9.2,9.2,0,0,1,12.9-.7,8.5,8.5,0,0,1,3.1,6.1,8.9,8.9,0,0,1-2.3,6.5q-7.8,8.4-20.1,8.4a26.1,26.1,0,0,1-12.6-2.8,26.4,26.4,0,0,1-8.4-6.9,30.3,30.3,0,0,1-4.7-9.1,31.9,31.9,0,0,1-1.5-9.1V526.8H444.5a8.8,8.8,0,0,1-6.5-2.6,8.7,8.7,0,0,1,0-12.6,8.8,8.8,0,0,1,6.5-2.6h18.3V473.7a8.4,8.4,0,0,1,2.8-6.2,8.7,8.7,0,0,1,6.4-2.7,8.9,8.9,0,0,1,6.5,2.7,8.3,8.3,0,0,1,2.7,6.2V509H509a8.9,8.9,0,1,1,0,17.8H481.2Z"/><path class="cls-1" d="M659.8,616.4a8.7,8.7,0,0,1-2.7,6.4,9.2,9.2,0,0,1-6.5,2.6,9,9,0,0,1-6.4-2.6,8.4,8.4,0,0,1-2.8-6.4V604.5a35.3,35.3,0,0,1-5.5,7.9,36.4,36.4,0,0,1-8.8,6.9,49.3,49.3,0,0,1-12.3,4.9,63,63,0,0,1-15.9,1.9,60.7,60.7,0,0,1-56-36.2,57.5,57.5,0,0,1,0-46,61.5,61.5,0,0,1,13-18.8,62.7,62.7,0,0,1,19.4-12.7,60.5,60.5,0,0,1,23.6-4.6A53.6,53.6,0,0,1,615,510a55.5,55.5,0,0,1,12.5,5.6,41.4,41.4,0,0,1,8.9,7.3,33.2,33.2,0,0,1,5,7.4V518a8.1,8.1,0,0,1,2.8-6.3,8.6,8.6,0,0,1,6.4-2.6,8.8,8.8,0,0,1,6.5,2.6,8.3,8.3,0,0,1,2.7,6.3Zm-60.9-8.2A42.9,42.9,0,0,0,629,596.1a40.1,40.1,0,0,0,9.1-13.1,39.2,39.2,0,0,0,3.3-16,39.6,39.6,0,0,0-3.3-16.1,41.6,41.6,0,0,0-9.1-13.2,43.1,43.1,0,0,0-13.6-8.8,43.3,43.3,0,0,0-46.5,8.8,43.2,43.2,0,0,0-9.1,13.2,39.6,39.6,0,0,0-3.3,16.1,39.2,39.2,0,0,0,3.3,16,42.4,42.4,0,0,0,22.6,22A43.3,43.3,0,0,0,598.9,608.2Z"/><path class="cls-1" d="M865.5,553.4c0,.1,0,1.2.1,3s0,4.3.1,7.2v52.8a9,9,0,0,1-2.6,6.4,9.3,9.3,0,0,1-6.6,2.6,9.1,9.1,0,0,1-6.5-2.6,8.7,8.7,0,0,1-2.7-6.4V555.7a34.4,34.4,0,0,0-2-12,30.2,30.2,0,0,0-5.8-10,28.6,28.6,0,0,0-9.2-6.8,30,30,0,0,0-12.3-2.5,27,27,0,0,0-10.3,1.9,28.8,28.8,0,0,0-8.8,5.2,29.9,29.9,0,0,0-6.6,7.9,28.2,28.2,0,0,0-3.7,9.9v67.1a8.7,8.7,0,0,1-2.7,6.4,9.2,9.2,0,0,1-6.5,2.6,9.1,9.1,0,0,1-6.5-2.6,8.7,8.7,0,0,1-2.7-6.4V549.3a35.7,35.7,0,0,0-3.5-9.8,30.1,30.1,0,0,0-6.2-7.9,29.4,29.4,0,0,0-8.7-5.3,31.4,31.4,0,0,0-10.8-1.9,27.9,27.9,0,0,0-11.5,2.4,30,30,0,0,0-9.5,6.6,32.4,32.4,0,0,0-6.5,9.7,30.7,30.7,0,0,0-2.5,12v61.3a8.7,8.7,0,0,1-2.7,6.4,9.1,9.1,0,0,1-6.5,2.6,9.3,9.3,0,0,1-6.6-2.6,9,9,0,0,1-2.6-6.4V518.2a9,9,0,0,1,2.6-6.4,9.3,9.3,0,0,1,6.6-2.6,9.1,9.1,0,0,1,6.5,2.6,8.7,8.7,0,0,1,2.7,6.4v6.1a67.3,67.3,0,0,1,5.5-6.7,41.2,41.2,0,0,1,6.9-5.6,30.6,30.6,0,0,1,8.1-4,31.9,31.9,0,0,1,9.4-1.4,54.6,54.6,0,0,1,13.5,1.5,38.4,38.4,0,0,1,10.3,4.3,37,37,0,0,1,8,6.7,72.9,72.9,0,0,1,6.7,8.6,46.9,46.9,0,0,1,16.5-15.4,48.3,48.3,0,0,1,10.5-4.3,52.4,52.4,0,0,1,31.4,2.3,43.4,43.4,0,0,1,14.6,10.1,44.3,44.3,0,0,1,9.3,14.8A57.9,57.9,0,0,1,865.5,553.4Z"/><path class="cls-3" d="M319,492.8s19.3-13.6,40.5-9.7"/><path class="cls-3" d="M321.3,496.8c10.5-7.2,24.4-11.2,37-9.2,5.9,1,8.4-8,2.5-9a62.4,62.4,0,0,0-44.2,10.1c-4.9,3.4-.2,11.5,4.7,8.1Z"/><path class="cls-3" d="M335.3,649.4s-23.4-2.3-37.1-19"/><path class="cls-3" d="M335.3,644.7c-.5,0-.6-.1.1,0l-2.7-.4a72.1,72.1,0,0,1-9.1-2.5,50.1,50.1,0,0,1-22.1-14.7c-3.9-4.6-10.5,2-6.6,6.6,9.9,11.7,25.3,18.8,40.4,20.4,6,.6,6-8.8,0-9.4Z"/></svg>