<svg id="Capa_1" data-name="Capa 1" xmlns="http://www.w3.org/2000/svg" viewBox="0 0 1080 1080"><defs><style>.cls-1{fill:#36b0c9;stroke-width:24.92px;}.cls-1,.cls-2{stroke:#fff;stroke-miterlimit:10;}.cls-2,.cls-3{fill:#201747;}.cls-2{stroke-width:19.94px;}.cls-4{fill:#fff;}</style></defs><path class="cls-1" d="M252,506.7a9.4,9.4,0,0,1,4.1.2,9.6,9.6,0,0,1,3.3,1.8,9.2,9.2,0,0,1,2.4,3.1,8.6,8.6,0,0,1,.9,3.9,8.2,8.2,0,0,1-2.2,5.8,9.2,9.2,0,0,1-5.6,3.1,42.7,42.7,0,0,0-13.6,5,44.7,44.7,0,0,0-10.9,8.9,44,44,0,0,0-7.2,12,40.2,40.2,0,0,0-2.6,14.2v51.7a8.7,8.7,0,0,1-2.7,6.4,9.3,9.3,0,0,1-6.6,2.6,9,9,0,0,1-6.6-2.6,8.7,8.7,0,0,1-2.7-6.4V518.1a8.7,8.7,0,0,1,2.7-6.4,9,9,0,0,1,6.6-2.6,9.3,9.3,0,0,1,6.6,2.6,8.7,8.7,0,0,1,2.7,6.4v8.2a64.9,64.9,0,0,1,14.5-13A43.3,43.3,0,0,1,252,506.7Z"/><path class="cls-2" d="M341.5,628.1a62.5,62.5,0,0,1-44.4-17.8A59.2,59.2,0,0,1,283.7,591a58.3,58.3,0,0,1-4.9-23.8,57.5,57.5,0,0,1,4.9-23.7,60.7,60.7,0,0,1,13.4-19.4,64.1,64.1,0,0,1,19.9-13,65.9,65.9,0,0,1,48.9,0,61.2,61.2,0,0,1,33.4,32.4,57.5,57.5,0,0,1,4.9,23.7,58.3,58.3,0,0,1-4.9,23.8,62.7,62.7,0,0,1-57.8,37.1Zm0-103.6a42.5,42.5,0,0,0-17.1,3.4,44,44,0,0,0-14,9.1,44.7,44.7,0,0,0-9.4,13.6,42.5,42.5,0,0,0,0,33.3,44.7,44.7,0,0,0,9.4,13.6,45.7,45.7,0,0,0,14,9.1,45,45,0,0,0,48.2-9.1,43,43,0,0,0,9.4-13.6,41.4,41.4,0,0,0,0-33.3,42.9,42.9,0,0,0-23.4-22.7A42.5,42.5,0,0,0,341.5,524.5Z"/><path class="cls-1" d="M467,589.7v7.8a18.8,18.8,0,0,0,.4,3.1,7.9,7.9,0,0,0,1.3,3.3,7.2,7.2,0,0,0,2.6,2.6,8.8,8.8,0,0,0,4.5,1,8.6,8.6,0,0,0,6.4-2.4,8.6,8.6,0,0,1,6.3-3,8.3,8.3,0,0,1,6.6,2.3,8.5,8.5,0,0,1,3.1,6.1,8.9,8.9,0,0,1-2.3,6.5q-7.8,8.4-20.1,8.4a26.1,26.1,0,0,1-12.6-2.8,28.8,28.8,0,0,1-8.4-6.9,30.3,30.3,0,0,1-4.7-9.1,31.5,31.5,0,0,1-1.4-9.1V526.8H430.3a8.8,8.8,0,0,1-6.5-2.6,8.7,8.7,0,0,1,0-12.6,8.8,8.8,0,0,1,6.5-2.6h18.4V473.7a8.3,8.3,0,0,1,2.7-6.2,9.1,9.1,0,0,1,12.9,0,8.3,8.3,0,0,1,2.7,6.2V509h27.8a8.9,8.9,0,1,1,0,17.8H467Z"/><path class="cls-1" d="M645.6,616.4a8.7,8.7,0,0,1-2.7,6.4,9.3,9.3,0,0,1-12.9,0,8.7,8.7,0,0,1-2.7-6.4V604.5a39.6,39.6,0,0,1-5.6,7.9,36.4,36.4,0,0,1-8.8,6.9,49.3,49.3,0,0,1-12.3,4.9,63,63,0,0,1-15.9,1.9,60.6,60.6,0,0,1-23.6-4.7,59.5,59.5,0,0,1-19.3-12.7,60.6,60.6,0,0,1-13.1-18.8,57.5,57.5,0,0,1,0-46,61.8,61.8,0,0,1,13.1-18.8,60.9,60.9,0,0,1,42.9-17.3,52.6,52.6,0,0,1,28.6,7.8,39.1,39.1,0,0,1,8.9,7.3,38,38,0,0,1,5.1,7.4V518a8.3,8.3,0,0,1,2.7-6.3,9.3,9.3,0,0,1,12.9,0,8.3,8.3,0,0,1,2.7,6.3Zm-60.9-8.2a42.4,42.4,0,0,0,30.1-12.1,40.1,40.1,0,0,0,9.1-13.1,39.2,39.2,0,0,0,3.4-16,39.7,39.7,0,0,0-3.4-16.1,41.6,41.6,0,0,0-9.1-13.2,43.7,43.7,0,0,0-13.5-8.8,43.2,43.2,0,0,0-33.1,0,43.7,43.7,0,0,0-13.5,8.8,45.1,45.1,0,0,0-9.1,13.2,39.6,39.6,0,0,0-3.3,16.1,39.2,39.2,0,0,0,3.3,16,43.3,43.3,0,0,0,9.1,13.1,42.4,42.4,0,0,0,30,12.1Z"/><path class="cls-1" d="M851.3,553.4c0,.1,0,1.2.1,3s0,4.3.1,7.2v52.8a8.6,8.6,0,0,1-2.6,6.4,9.3,9.3,0,0,1-6.6,2.6,9.1,9.1,0,0,1-6.5-2.6,8.6,8.6,0,0,1-2.6-6.4V555.7a34.4,34.4,0,0,0-2.1-12,30.2,30.2,0,0,0-5.8-10,28.6,28.6,0,0,0-9.2-6.8,30,30,0,0,0-12.3-2.5,27.3,27.3,0,0,0-10.3,1.9,28.8,28.8,0,0,0-8.8,5.2,29.9,29.9,0,0,0-6.6,7.9,30.2,30.2,0,0,0-3.7,9.9v67.1a8.7,8.7,0,0,1-2.7,6.4,9.2,9.2,0,0,1-6.5,2.6,9.1,9.1,0,0,1-6.5-2.6,8.7,8.7,0,0,1-2.7-6.4V549.3a32.7,32.7,0,0,0-3.5-9.8,30.1,30.1,0,0,0-6.2-7.9,29.4,29.4,0,0,0-8.7-5.3,31.4,31.4,0,0,0-10.8-1.9,27.9,27.9,0,0,0-11.5,2.4,30,30,0,0,0-9.5,6.6,32.4,32.4,0,0,0-6.5,9.7,30.7,30.7,0,0,0-2.5,12v61.3a8.7,8.7,0,0,1-2.7,6.4,8.9,8.9,0,0,1-6.5,2.6,9.3,9.3,0,0,1-6.6-2.6,9,9,0,0,1-2.6-6.4V518.2a9,9,0,0,1,2.6-6.4,9.3,9.3,0,0,1,6.6-2.6,8.9,8.9,0,0,1,6.5,2.6,8.7,8.7,0,0,1,2.7,6.4v6.1a56.8,56.8,0,0,1,5.6-6.7,36.9,36.9,0,0,1,6.8-5.6,30,30,0,0,1,17.6-5.4,53.2,53.2,0,0,1,13.4,1.5,38.4,38.4,0,0,1,10.3,4.3,37,37,0,0,1,8,6.7,72.9,72.9,0,0,1,6.7,8.6,46.8,46.8,0,0,1,7.3-8.7,50.4,50.4,0,0,1,9.2-6.7,48.3,48.3,0,0,1,10.5-4.3,52.4,52.4,0,0,1,31.4,2.3,42.4,42.4,0,0,1,14.6,10.1,44.3,44.3,0,0,1,9.3,14.8A55.2,55.2,0,0,1,851.3,553.4Z"/><path class="cls-3" d="M304.8,492.8s19.3-13.6,40.5-9.7"/><path class="cls-4" d="M307.1,496.8c10.5-7.2,24.4-11.2,37-9.2,5.9,1,8.4-8,2.5-9a62.4,62.4,0,0,0-44.2,10.1c-4.9,3.4-.2,11.5,4.7,8.1Z"/><path class="cls-3" d="M321.1,649.4s-23.4-2.3-37.1-19"/><path class="cls-4" d="M321.1,644.7c-.5,0-.6-.1.1,0l-2.7-.4a66.3,66.3,0,0,1-9-2.5,49.9,49.9,0,0,1-22.2-14.7c-3.9-4.6-10.4,2-6.6,6.6,9.9,11.7,25.3,18.8,40.4,20.4,6,.6,6-8.8,0-9.4Z"/></svg>